<?xml version="1.0" encoding="UTF-8"?>
<svg version="1.1" xmlns="http://www.w3.org/2000/svg" width="100" height="71">
<path d="M0 0 C3.02089478 -0.02716089 6.04154129 -0.04691657 9.0625 -0.0625 C9.91005859 -0.07087891 10.75761719 -0.07925781 11.63085938 -0.08789062 C19.99142247 -0.12017079 26.72243485 -0.00109208 33 6 C36.12849727 10.58846267 36.95610511 15.5131383 37 21 C36.67 21.66 36.34 22.32 36 23 C38.31 23 40.62 23 43 23 C42.48308594 22.07058594 41.96617188 21.14117188 41.43359375 20.18359375 C40.76726899 18.93540793 40.1019578 17.68668067 39.4375 16.4375 C39.09525391 15.82841797 38.75300781 15.21933594 38.40039062 14.59179688 C36.01503593 10.03793791 35.7848666 7.15933689 37 2 C38.32 2 39.64 2 41 2 C41.37809814 2.85231201 41.75619629 3.70462402 42.14575195 4.58276367 C43.55772698 7.76149328 44.97259342 10.93890306 46.3894043 14.11547852 C47.00058453 15.48736073 47.61062705 16.85975042 48.21948242 18.23266602 C49.09771769 20.21246539 49.98010559 22.19036919 50.86328125 24.16796875 C51.39219971 25.35672607 51.92111816 26.5454834 52.46606445 27.77026367 C54.11033026 31.36685445 54.11033026 31.36685445 57 36 C52.71 36 48.42 36 44 36 C44 35.34 44 34.68 44 34 C45.32 34 46.64 34 48 34 C47.505 33.21625 47.01 32.4325 46.5 31.625 C45 29 45 29 45 27 C41.94846439 26.70658311 39.04267119 26.57063351 36 27 C33.78468339 29.22712063 33.78468339 29.22712063 32 32 C26.22768707 36.24088297 21.06685072 36.7444177 14 37 C14 35.35 14 33.7 14 32 C14.95712891 31.80083984 14.95712891 31.80083984 15.93359375 31.59765625 C16.75988281 31.42105469 17.58617188 31.24445312 18.4375 31.0625 C19.26121094 30.88847656 20.08492187 30.71445312 20.93359375 30.53515625 C22.97661204 30.19247006 22.97661204 30.19247006 24 29 C24.07205511 27.31391034 24.08386068 25.62499341 24.0625 23.9375 C24.05347656 23.01839844 24.04445313 22.09929688 24.03515625 21.15234375 C24.02355469 20.44207031 24.01195313 19.73179688 24 19 C23.34 19 22.68 19 22 19 C22 18.01 22 17.02 22 16 C22.66 16 23.32 16 24 16 C23.505 11.05 23.505 11.05 23 6 C19.04 5.67 15.08 5.34 11 5 C11.00523682 5.93384521 11.01047363 6.86769043 11.01586914 7.82983398 C11.0328762 11.28312796 11.04543302 14.73637767 11.05493164 18.18969727 C11.05997121 19.68644918 11.06680287 21.18319616 11.07543945 22.67993164 C11.08752159 24.82699807 11.09323191 26.97399962 11.09765625 29.12109375 C11.10289307 30.4145874 11.10812988 31.70808105 11.11352539 33.04077148 C11 36 11 36 10 37 C8.14712498 37.07226502 6.29166122 37.0838122 4.4375 37.0625 C3.42558594 37.05347656 2.41367187 37.04445312 1.37109375 37.03515625 C0.58863281 37.02355469 -0.19382812 37.01195312 -1 37 C-1 36.34 -1 35.68 -1 35 C0.98 34.505 0.98 34.505 3 34 C3.33 23.77 3.66 13.54 4 3 C2.35 3 0.7 3 -1 3 C-0.67 2.01 -0.34 1.02 0 0 Z " fill="#DA8F38" transform="translate(23,0)"/>
<path d="M0 0 C23.1 0 46.2 0 70 0 C70 0.99 70 1.98 70 3 C54.16 3.495 54.16 3.495 38 4 C38.495 5.485 38.495 5.485 39 7 C40.45742463 7.08096803 41.91612807 7.13917774 43.375 7.1875 C44.59316406 7.23970703 44.59316406 7.23970703 45.8359375 7.29296875 C46.55007812 7.19628906 47.26421875 7.09960938 48 7 C48.66 6.01 49.32 5.02 50 4 C52.625 3.8125 52.625 3.8125 55 4 C55.495 5.485 55.495 5.485 56 7 C56.45375 6.505 56.9075 6.01 57.375 5.5 C59 4 59 4 61 4 C61 4.99 61 5.98 61 7 C62.98 6.67 64.96 6.34 67 6 C67.495 7.485 67.495 7.485 68 9 C67.34 9 66.68 9 66 9 C66 9.66 66 10.32 66 11 C65.02733437 10.99666908 65.02733437 10.99666908 64.03501892 10.99327087 C57.27017774 10.97110272 50.50534692 10.9560453 43.74047852 10.94506836 C41.21768779 10.94004772 38.69489996 10.9332299 36.17211914 10.92456055 C32.54052006 10.91239558 28.90895953 10.9067489 25.27734375 10.90234375 C23.59257179 10.89460182 23.59257179 10.89460182 21.87376404 10.88670349 C13.88166081 10.86079351 13.88166081 10.86079351 6 12 C5.67 12.66 5.34 13.32 5 14 C4.01 14 3.02 14 2 14 C2 11 2 8 2 5 C3.65 4.67 5.3 4.34 7 4 C7.33 4.99 7.66 5.98 8 7 C8.51949219 6.77183594 9.03898437 6.54367188 9.57421875 6.30859375 C13.74471445 4.58951696 16.53273787 3.46437864 21 5 C21 5.66 21 6.32 21 7 C22.98 7 24.96 7 27 7 C27 6.01 27 5.02 27 4 C27.66 4 28.32 4 29 4 C29 4.99 29 5.98 29 7 C29.66 7 30.32 7 31 7 C31.66 6.01 32.32 5.02 33 4 C22.11 3.67 11.22 3.34 0 3 C0 2.01 0 1.02 0 0 Z M36 7 C37 9 37 9 37 9 Z M51 7 C52 9 52 9 52 9 Z " fill="#000000" transform="translate(16,57)"/>
<path d="M0 0 C8.57142857 -0.28571429 8.57142857 -0.28571429 12 2 C12.99 1.34 13.98 0.68 15 0 C21.27618412 -0.56037358 21.27618412 -0.56037358 23.9375 1.5 C24.288125 1.995 24.63875 2.49 25 3 C25.33 2.01 25.66 1.02 26 0 C27.32 0 28.64 0 30 0 C30 3.63 30 7.26 30 11 C31.65 11 33.3 11 35 11 C35 7.37 35 3.74 35 0 C36.32 0 37.64 0 39 0 C39.08142927 1.7492214 39.13938541 3.49954542 39.1875 5.25 C39.23970703 6.71179687 39.23970703 6.71179687 39.29296875 8.203125 C38.95358002 11.44315607 38.35795805 12.76836113 36 15 C33.23857697 15.52799676 30.83634455 15.18598981 28 15 C27.34 13.68 26.68 12.36 26 11 C25.505 11.66 25.01 12.32 24.5 13 C20.86068605 15.91145116 18.58932505 15.37010686 14 15 C13.34 14.67 12.68 14.34 12 14 C12 14.33 12 14.66 12 15 C10.35 15 8.7 15 7 15 C6.67 13.35 6.34 11.7 6 10 C5.34 10 4.68 10 4 10 C4 11.65 4 13.3 4 15 C2.68 15 1.36 15 0 15 C0 10.05 0 5.1 0 0 Z M4 4 C4 4.66 4 5.32 4 6 C4.99 5.67 5.98 5.34 7 5 C6.01 4.67 5.02 4.34 4 4 Z M16 4 C14.70366379 5.06645115 14.70366379 5.06645115 14.9375 7.5625 C14.958125 8.366875 14.97875 9.17125 15 10 C16.98 10.99 16.98 10.99 19 12 C20.64555699 10.77190909 20.64555699 10.77190909 22 9 C21.77242269 6.83700789 21.77242269 6.83700789 21 5 C19.34385343 4.61781233 17.67542976 4.28604898 16 4 Z " fill="#D18021" transform="translate(33,39)"/>
<path d="M0 0 C23.1 0 46.2 0 70 0 C70 0.99 70 1.98 70 3 C46.9 3 23.8 3 0 3 C0 2.01 0 1.02 0 0 Z " fill="#CB751B" transform="translate(16,57)"/>
<path d="M0 0 C0.33 0.66 0.66 1.32 1 2 C0.67 2.66 0.34 3.32 0 4 C-2.32156597 4.40729228 -4.6568787 4.74438677 -7 5 C-7.5534764 7.07553648 -8 8.84365964 -8 11 C-6.35 11.33 -4.7 11.66 -3 12 C-3 11.34 -3 10.68 -3 10 C-3.99 10 -4.98 10 -6 10 C-6 8.68 -6 7.36 -6 6 C-3.69 6 -1.38 6 1 6 C1 8.97 1 11.94 1 15 C-8.00105708 15.61839323 -8.00105708 15.61839323 -11.625 13.375 C-13.44828677 10.22568648 -13.6587245 8.58638897 -13 5 C-9.18734055 -0.48069796 -6.20006788 -0.52542948 0 0 Z " fill="#D18021" transform="translate(31,39)"/>
<path d="M0 0 C1.258125 -0.04125 2.51625 -0.0825 3.8125 -0.125 C4.52019531 -0.14820313 5.22789063 -0.17140625 5.95703125 -0.1953125 C8 0 8 0 11 2 C11.375 5 11.375 5 11 8 C8 10 8 10 4 10 C4 11.65 4 13.3 4 15 C2.68 15 1.36 15 0 15 C0 10.05 0 5.1 0 0 Z M4 4 C4 4.99 4 5.98 4 7 C4.99 6.67 5.98 6.34 7 6 C7 5.34 7 4.68 7 4 C6.01 4 5.02 4 4 4 Z " fill="#D18021" transform="translate(73,39)"/>
</svg>
