<?xml version="1.0" encoding="UTF-8"?>
<svg version="1.1" xmlns="http://www.w3.org/2000/svg" width="238" height="43">
<path d="M0 0 C78.54 0 157.08 0 238 0 C238 14.19 238 28.38 238 43 C159.46 43 80.92 43 0 43 C0 28.81 0 14.62 0 0 Z " fill="#033469" transform="translate(0,0)"/>
<path d="M0 0 C0.78246094 0.05542969 1.56492187 0.11085938 2.37109375 0.16796875 C4.5625 0.8125 4.5625 0.8125 6.32421875 2.51953125 C7.82679354 5.30190161 7.96346562 7.16200438 7.9375 10.3125 C7.94523437 11.2509375 7.95296875 12.189375 7.9609375 13.15625 C7.4993632 16.23341199 6.71326055 17.59105718 4.5625 19.8125 C0.89007535 21.03664155 -1.5797537 21.27809007 -5.4375 20.8125 C-8.7881485 18.10346504 -10.12550252 16.55311752 -10.8828125 12.328125 C-11.0676301 8.16356849 -11.06562707 5.67094033 -8.5625 2.25 C-5.36318486 0.0857574 -3.82254789 -0.33266837 0 0 Z " fill="#D8DFE6" transform="translate(80.4375,15.1875)"/>
<path d="M0 0 C1.32 0 2.64 0 4 0 C4 3.96 4 7.92 4 12 C8.62 12 13.24 12 18 12 C18 8.04 18 4.08 18 0 C19.32 0 20.64 0 22 0 C22 9.24 22 18.48 22 28 C20.68 28 19.36 28 18 28 C18 23.71 18 19.42 18 15 C13.38 15 8.76 15 4 15 C4 19.29 4 23.58 4 28 C2.68 28 1.36 28 0 28 C0 18.76 0 9.52 0 0 Z " fill="#1D7EE1" transform="translate(94,8)"/>
<path d="M0 0 C0 0.66 0 1.32 0 2 C0.99 2.33 1.98 2.66 3 3 C4.25433458 6.76300374 4.10695422 10.27210909 4.0625 14.1875 C4.05798828 14.93708984 4.05347656 15.68667969 4.04882812 16.45898438 C4.03706354 18.30602383 4.01912865 20.15302213 4 22 C3.195625 21.814375 2.39125 21.62875 1.5625 21.4375 C0.716875 21.293125 -0.12875 21.14875 -1 21 C-1.33 21.33 -1.66 21.66 -2 22 C-7.8410596 22.37086093 -7.8410596 22.37086093 -10 22 C-12.46943529 18.29584707 -12.46913089 16.37855495 -12 12 C-10.5 10.0625 -10.5 10.0625 -8 9 C-5.27940731 8.77155329 -2.7408346 8.86295827 0 9 C-0.33 7.68 -0.66 6.36 -1 5 C-3.31 4.67 -5.62 4.34 -8 4 C-8.33 4.99 -8.66 5.98 -9 7 C-9.99 7 -10.98 7 -12 7 C-11.8125 5.1875 -11.8125 5.1875 -11 3 C-7.33874929 0.07099943 -4.6175429 -0.32215416 0 0 Z " fill="#1A77D8" transform="translate(154,14)"/>
<path d="M0 0 C1.32 0 2.64 0 4 0 C4 3.3 4 6.6 4 10 C4.66 9.67 5.32 9.34 6 9 C8.6723621 8.86584528 11.32250488 8.95681459 14 9 C14.33 9.99 14.66 10.98 15 12 C15.66 12 16.32 12 17 12 C17 17.94 17 23.88 17 30 C15.68 30 14.36 30 13 30 C12.67 24.06 12.34 18.12 12 12 C9.69 12.66 7.38 13.32 5 14 C4.67 19.28 4.34 24.56 4 30 C2.68 30 1.36 30 0 30 C0 20.1 0 10.2 0 0 Z " fill="#237BD6" transform="translate(186,6)"/>
<path d="M0 0 C1.875 1.5625 1.875 1.5625 3 4 C3.1875 7.75 3.1875 7.75 3 11 C-1.29 11 -5.58 11 -10 11 C-9.01 12.98 -8.02 14.96 -7 17 C-3.4780279 17.08004482 -0.38018531 17.04005702 3 16 C1.25 19.875 1.25 19.875 -1 21 C-5.17518846 21.47266285 -7.32567556 21.41607253 -10.9375 19.1875 C-13.8773002 14.64417242 -13.94498592 10.28404627 -13 5 C-10.70742875 1.29272914 -10.70742875 1.29272914 -8.1875 0.25 C-5.34395606 -0.07497645 -2.86053574 -0.30431231 0 0 Z " fill="#2D90F6" transform="translate(134,15)"/>
<path d="M0 0 C2.31 0 4.62 0 7 0 C7.33 1.65 7.66 3.3 8 5 C7.28972656 5.13277344 6.57945312 5.26554687 5.84765625 5.40234375 C4.92855469 5.57894531 4.00945312 5.75554688 3.0625 5.9375 C2.14597656 6.11152344 1.22945312 6.28554688 0.28515625 6.46484375 C-1.95289844 6.77714988 -1.95289844 6.77714988 -3 8 C-3.07148199 9.35243917 -3.08399454 10.70834367 -3.0625 12.0625 C-3.041875 13.361875 -3.02125 14.66125 -3 16 C-3.66 16 -4.32 16 -5 16 C-5 15.34 -5 14.68 -5 14 C-5.99 14 -6.98 14 -8 14 C-8 14.66 -8 15.32 -8 16 C-8.66 15.67 -9.32 15.34 -10 15 C-9.67 14.34 -9.34 13.68 -9 13 C-9.53625 13.33 -10.0725 13.66 -10.625 14 C-13.65696965 15.2766188 -15.74003936 15.41616519 -19 15 C-20.875 13.1875 -20.875 13.1875 -22 11 C-22 10.01 -22 9.02 -22 8 C-17.71 8 -13.42 8 -9 8 C-9 6.02 -9 4.04 -9 2 C-8.67 2.66 -8.34 3.32 -8 4 C-7.34 4 -6.68 4 -6 4 C-6 3.01 -6 2.02 -6 1 C-5.34 1 -4.68 1 -4 1 C-4 1.66 -4 2.32 -4 3 C-3.01 2.67 -2.02 2.34 -1 2 C-0.67 1.34 -0.34 0.68 0 0 Z " fill="#063C7C" transform="translate(146,18)"/>
<path d="M0 0 C2.625 0.1875 2.625 0.1875 5.625 2.1875 C6.87933458 5.95050374 6.73195422 9.45960909 6.6875 13.375 C6.68298828 14.12458984 6.67847656 14.87417969 6.67382812 15.64648438 C6.66206354 17.49352383 6.64412865 19.34052213 6.625 21.1875 C5.635 21.1875 4.645 21.1875 3.625 21.1875 C3.625 15.5775 3.625 9.9675 3.625 4.1875 C-2.775 4.3875 -2.775 4.3875 -4.375 6.1875 C-4.61178716 8.87985776 -4.79698025 11.55248156 -4.9375 14.25 C-4.98068359 15.00861328 -5.02386719 15.76722656 -5.06835938 16.54882812 C-5.17473633 18.42815438 -5.27539934 20.30780244 -5.375 22.1875 C-6.695 22.1875 -8.015 22.1875 -9.375 22.1875 C-9.375 15.2575 -9.375 8.3275 -9.375 1.1875 C-7.395 1.1875 -5.415 1.1875 -3.375 1.1875 C-2.375 0.1875 -2.375 0.1875 0 0 Z " fill="#B0C7E4" transform="translate(44.375,13.8125)"/>
<path d="M0 0 C0.94875 0.04125 1.8975 0.0825 2.875 0.125 C2.875 1.115 2.875 2.105 2.875 3.125 C1.555 3.455 0.235 3.785 -1.125 4.125 C-1.455 5.775 -1.785 7.425 -2.125 9.125 C-0.805 9.125 0.515 9.125 1.875 9.125 C1.875 10.115 1.875 11.105 1.875 12.125 C0.555 12.125 -0.765 12.125 -2.125 12.125 C-2.125 18.065 -2.125 24.005 -2.125 30.125 C-3.445 30.125 -4.765 30.125 -6.125 30.125 C-6.125 24.185 -6.125 18.245 -6.125 12.125 C-7.115 12.125 -8.105 12.125 -9.125 12.125 C-9.125 11.135 -9.125 10.145 -9.125 9.125 C-8.135 9.125 -7.145 9.125 -6.125 9.125 C-6.00125 8.01125 -5.8775 6.8975 -5.75 5.75 C-4.97599959 1.26079763 -4.63187427 0.18527497 0 0 Z " fill="#EFF1F7" transform="translate(65.125,5.875)"/>
<path d="M0 0 C1.32 0 2.64 0 4 0 C4 1.65 4 3.3 4 5 C5.32 5 6.64 5 8 5 C8 5.99 8 6.98 8 8 C6.68 8 5.36 8 4 8 C4.33 12.62 4.66 17.24 5 22 C5.99 22.33 6.98 22.66 8 23 C8 23.99 8 24.98 8 26 C6.02 26 4.04 26 2 26 C2 25.34 2 24.68 2 24 C1.34 24 0.68 24 0 24 C0 18.72 0 13.44 0 8 C-1.32 8 -2.64 8 -4 8 C-4 6.68 -4 5.36 -4 4 C-2.68 4 -1.36 4 0 4 C0 2.68 0 1.36 0 0 Z " fill="#1773D3" transform="translate(174,10)"/>
<path d="M0 0 C1.91015625 0.23046875 1.91015625 0.23046875 3.91015625 2.23046875 C4.58727224 9.22733395 4.58727224 9.22733395 2.22265625 12.73046875 C-0.51969416 14.50929064 -1.88392445 14.82103283 -5.08984375 14.23046875 C-7.27825729 10.94784844 -7.3383904 9.91255977 -7.27734375 6.10546875 C-7.27089844 5.21601563 -7.26445313 4.3265625 -7.2578125 3.41015625 C-6.90983465 -1.10546335 -3.87914916 0.07744218 0 0 Z " fill="#093260" transform="translate(81.08984375,18.76953125)"/>
<path d="M0 0 C0.99 0 1.98 0 3 0 C4.25676377 9.98678356 4.09367165 19.95631733 4 30 C2.68 30 1.36 30 0 30 C0 20.1 0 10.2 0 0 Z " fill="#1D7FE9" transform="translate(186,6)"/>
<path d="M0 0 C0.99 0 1.98 0 3 0 C3 9.9 3 19.8 3 30 C2.01 30 1.02 30 0 30 C0 20.1 0 10.2 0 0 Z " fill="#2687EA" transform="translate(164,6)"/>
<path d="M0 0 C1.32 0 2.64 0 4 0 C4 6.93 4 13.86 4 21 C2.68 21 1.36 21 0 21 C0 14.07 0 7.14 0 0 Z " fill="#C0CED5" transform="translate(26,15)"/>
<path d="M0 0 C0.33 0 0.66 0 1 0 C1 7.26 1 14.52 1 22 C0.34 21.01 -0.32 20.02 -1 19 C-1.66 19 -2.32 19 -3 19 C-3.061875 17.989375 -3.12375 16.97875 -3.1875 15.9375 C-3.80861883 11.32616326 -6.14523684 8.58675372 -9 5 C-8.401875 5.165 -7.80375 5.33 -7.1875 5.5 C-4.88655664 6.1114124 -4.88655664 6.1114124 -2 6 C-1.34 4.02 -0.68 2.04 0 0 Z " fill="#002F65" transform="translate(92,9)"/>
<path d="M0 0 C0.33 0 0.66 0 1 0 C1.33 2.97 1.66 5.94 2 9 C2.99 9.33 3.98 9.66 5 10 C5.33 10.66 5.66 11.32 6 12 C9.5219721 12.08004482 12.61981469 12.04005702 16 11 C14.25 14.875 14.25 14.875 12 16 C7.82481154 16.47266285 5.67432444 16.41607253 2.0625 14.1875 C-0.93618896 9.55316252 -0.42334995 5.37184048 0 0 Z " fill="#1F76DA" transform="translate(121,20)"/>
<path d="M0 0 C6.33333333 0 12.66666667 0 19 0 C19 0.33 19 0.66 19 1 C16.02148438 1.63476562 16.02148438 1.63476562 13.04296875 2.26953125 C10.5967274 3.14419116 9.53594196 3.90212806 8 6 C7.42428504 8.50203648 7.42428504 8.50203648 7.3125 11.1875 C7.24675781 12.08855469 7.18101563 12.98960938 7.11328125 13.91796875 C7.07589844 14.60503906 7.03851563 15.29210938 7 16 C6.67 16 6.34 16 6 16 C6 12.7 6 9.4 6 6 C3.03 5.505 3.03 5.505 0 5 C1.32 4.67 2.64 4.34 4 4 C4 3.01 4 2.02 4 1 C2.68 0.67 1.36 0.34 0 0 Z " fill="#2D4C74" transform="translate(63,14)"/>
<path d="M0 0 C0.33 0 0.66 0 1 0 C1 6.27 1 12.54 1 19 C1.66 19 2.32 19 3 19 C3 13.06 3 7.12 3 1 C3.33 1 3.66 1 4 1 C4 7.93 4 14.86 4 22 C5.65 22 7.3 22 9 22 C9 22.33 9 22.66 9 23 C6.36 23 3.72 23 1 23 C-0.2263757 20.54724859 -0.11415314 18.9494219 -0.09765625 16.2109375 C-0.09443359 15.26992188 -0.09121094 14.32890625 -0.08789062 13.359375 C-0.07951172 12.37453125 -0.07113281 11.3896875 -0.0625 10.375 C-0.05798828 9.38242187 -0.05347656 8.38984375 -0.04882812 7.3671875 C-0.03702145 4.9113984 -0.020554 2.45572896 0 0 Z " fill="#092851" transform="translate(31,15)"/>
<path d="M0 0 C0.66 0.33 1.32 0.66 2 1 C2.02684679 3.64590014 2.04676357 6.29153096 2.0625 8.9375 C2.07087891 9.69224609 2.07925781 10.44699219 2.08789062 11.22460938 C2.09652441 13.14994313 2.05224333 15.07535581 2 17 C1 18 1 18 -2.0625 18.0625 C-3.031875 18.041875 -4.00125 18.02125 -5 18 C-3.68 17.67 -2.36 17.34 -1 17 C-1.01160156 15.85660156 -1.02320313 14.71320312 -1.03515625 13.53515625 C-1.04453288 12.04427246 -1.05363321 10.55338691 -1.0625 9.0625 C-1.07087891 8.30775391 -1.07925781 7.55300781 -1.08789062 6.77539062 C-1.09652441 4.85005687 -1.05224333 2.92464419 -1 1 C-0.67 0.67 -0.34 0.34 0 0 Z " fill="#153260" transform="translate(40,19)"/>
<path d="M0 0 C0.33 0 0.66 0 1 0 C1 8.25 1 16.5 1 25 C1.66 25 2.32 25 3 25 C3 19.39 3 13.78 3 8 C3.33 8 3.66 8 4 8 C4 13.94 4 19.88 4 26 C2.68 26 1.36 26 0 26 C0 20.06 0 14.12 0 8 C-0.99 8 -1.98 8 -3 8 C-3 7.01 -3 6.02 -3 5 C-2.01 5 -1.02 5 0 5 C0 3.35 0 1.7 0 0 Z " fill="#B3C7DF" transform="translate(59,10)"/>
<path d="M0 0 C0.66 0 1.32 0 2 0 C3.25433458 3.76300374 3.10695422 7.27210909 3.0625 11.1875 C3.05798828 11.93708984 3.05347656 12.68667969 3.04882812 13.45898438 C3.03706354 15.30602383 3.01912865 17.15302213 3 19 C2.01 19 1.02 19 0 19 C0 12.73 0 6.46 0 0 Z " fill="#EAF1F4" transform="translate(48,16)"/>
<path d="M0 0 C2.05078125 0.03255208 4.1015625 0.06510417 6.15234375 0.09765625 C6.19506475 1.7637753 6.19298207 3.4314851 6.15234375 5.09765625 C5.15234375 6.09765625 5.15234375 6.09765625 1.58984375 6.16015625 C0.45546875 6.13953125 -0.67890625 6.11890625 -1.84765625 6.09765625 C-2.22984392 4.44150968 -2.56160727 2.77308601 -2.84765625 1.09765625 C-1.84765625 0.09765625 -1.84765625 0.09765625 0 0 Z " fill="#032F66" transform="translate(147.84765625,25.90234375)"/>
<path d="M0 0 C0.90492188 0.02320312 1.80984375 0.04640625 2.7421875 0.0703125 C4.10730469 0.09738281 4.10730469 0.09738281 5.5 0.125 C6.19867188 0.14820312 6.89734375 0.17140625 7.6171875 0.1953125 C7.6171875 0.5253125 7.6171875 0.8553125 7.6171875 1.1953125 C4.9771875 1.8553125 2.3371875 2.5153125 -0.3828125 3.1953125 C-0.7128125 4.8453125 -1.0428125 6.4953125 -1.3828125 8.1953125 C0.5971875 8.8553125 2.5771875 9.5153125 4.6171875 10.1953125 C4.6171875 10.5253125 4.6171875 10.8553125 4.6171875 11.1953125 C1.2421875 11.3203125 1.2421875 11.3203125 -2.3828125 11.1953125 C-4.3828125 9.1953125 -4.3828125 9.1953125 -4.6328125 5.6953125 C-4.35243129 1.7699756 -4.09313154 0.33550259 0 0 Z " fill="#2C8BEF" transform="translate(146.3828125,23.8046875)"/>
<path d="M0 0 C0.99 0 1.98 0 3 0 C3 1.98 3 3.96 3 6 C3.99 6.33 4.98 6.66 6 7 C4.68 7 3.36 7 2 7 C1.67 10.3 1.34 13.6 1 17 C0.67 17 0.34 17 0 17 C0 13.7 0 10.4 0 7 C-1.32 7 -2.64 7 -4 7 C-4 6.34 -4 5.68 -4 5 C-2.68 5 -1.36 5 0 5 C0 3.35 0 1.7 0 0 Z " fill="#2889EC" transform="translate(175,10)"/>
<path d="M0 0 C1.40037237 4.01159302 0.95758094 8.02529371 0.6875 12.1875 C0.65205078 12.92419922 0.61660156 13.66089844 0.58007812 14.41992188 C0.46503123 16.28642902 0.24097482 18.14554163 0 20 C-0.66 20.33 -1.32 20.66 -2 21 C-2.25427918 17.8765076 -2.47412319 14.75153179 -2.6875 11.625 C-2.76033203 10.73554688 -2.83316406 9.84609375 -2.90820312 8.9296875 C-2.96298828 8.07890625 -3.01777344 7.228125 -3.07421875 6.3515625 C-3.13182373 5.56604004 -3.18942871 4.78051758 -3.2487793 3.97119141 C-3.12563354 2.99545166 -3.12563354 2.99545166 -3 2 C-2.01 1.34 -1.02 0.68 0 0 Z " fill="#032759" transform="translate(54,14)"/>
<path d="M0 0 C0.33 0 0.66 0 1 0 C1 3.63 1 7.26 1 11 C1.99 11.33 2.98 11.66 4 12 C3.67 12.99 3.34 13.98 3 15 C-1.76622787 11.1870177 -1.76622787 11.1870177 -2.40234375 7.95703125 C-2.4375 5.8125 -2.4375 5.8125 -2 2 C-1.34 1.34 -0.68 0.68 0 0 Z " fill="#E2EEF6" transform="translate(72,20)"/>
<path d="M0 0 C2.875 -0.125 2.875 -0.125 6 0 C8 2 8 2 8 5 C5.03 5 2.06 5 -1 5 C-0.67 3.35 -0.34 1.7 0 0 Z " fill="#023470" transform="translate(126,18)"/>
<path d="M0 0 C0.66 0 1.32 0 2 0 C3.09587955 4.24551856 2.92865836 7.9592839 2.5625 12.3125 C2.46066406 13.56675781 2.35882813 14.82101563 2.25390625 16.11328125 C2.12822266 17.54220703 2.12822266 17.54220703 2 19 C1.34 19 0.68 19 0 19 C0 12.73 0 6.46 0 0 Z " fill="#FAF9FD" transform="translate(36,16)"/>
<path d="M0 0 C0.99 1.485 0.99 1.485 2 3 C3.97747122 3.36297936 3.97747122 3.36297936 6.125 3.1875 C7.40375 3.125625 8.6825 3.06375 10 3 C10.103125 3.639375 10.20625 4.27875 10.3125 4.9375 C10.6528125 5.9584375 10.6528125 5.9584375 11 7 C11.99 7.33 12.98 7.66 14 8 C13.195625 7.814375 12.39125 7.62875 11.5625 7.4375 C10.716875 7.293125 9.87125 7.14875 9 7 C8.67 7.33 8.34 7.66 8 8 C5.32941149 8.14115161 2.67567762 8.04247107 0 8 C0.99 7.34 1.98 6.68 3 6 C2.01 5.34 1.02 4.68 0 4 C0 2.68 0 1.36 0 0 Z " fill="#186DCC" transform="translate(144,28)"/>
<path d="M0 0 C2.97 0 5.94 0 9 0 C9.33 0.66 9.66 1.32 10 2 C7.69 2.33 5.38 2.66 3 3 C3 6.63 3 10.26 3 14 C2.34 14 1.68 14 1 14 C0.67 10.7 0.34 7.4 0 4 C-0.99 4.495 -0.99 4.495 -2 5 C-1.34 3.35 -0.68 1.7 0 0 Z " fill="#A0ADBE" transform="translate(72,17)"/>
<path d="M0 0 C2.42479736 3.63719605 2.38662577 5.85703482 2.625 10.1875 C2.69976562 11.45980469 2.77453125 12.73210938 2.8515625 14.04296875 C2.92503906 15.50669922 2.92503906 15.50669922 3 17 C2.01 17 1.02 17 0 17 C-0.98844951 13.05352382 -0.96191905 9.72607036 -0.5625 5.6875 C-0.46066406 4.61886719 -0.35882813 3.55023437 -0.25390625 2.44921875 C-0.17011719 1.64097656 -0.08632812 0.83273438 0 0 Z " fill="#228AF3" transform="translate(155,18)"/>
<path d="M0 0 C0 0.66 0 1.32 0 2 C-1.65 2 -3.3 2 -5 2 C-4.01 2.66 -3.02 3.32 -2 4 C-3.98 4 -5.96 4 -8 4 C-8.33 4.99 -8.66 5.98 -9 7 C-9.99 7 -10.98 7 -12 7 C-11.8125 5.1875 -11.8125 5.1875 -11 3 C-7.33874929 0.07099943 -4.6175429 -0.32215416 0 0 Z " fill="#1A6FCE" transform="translate(154,14)"/>
<path d="M0 0 C0.33 0.99 0.66 1.98 1 3 C1.66 3.33 2.32 3.66 3 4 C-0.63423209 6.32590854 -3.77088331 6.16265833 -8 6 C-7.67 5.01 -7.34 4.02 -7 3 C-4 1.875 -4 1.875 -1 1 C-0.67 0.67 -0.34 0.34 0 0 Z " fill="#C8D4E1" transform="translate(83,30)"/>
<path d="M0 0 C1.9375 0.3125 1.9375 0.3125 4 1 C4.33 1.99 4.66 2.98 5 4 C5.66 4 6.32 4 7 4 C8.1577506 7.47325181 8.06866652 10.36067448 8 14 C7.34 14 6.68 14 6 14 C5.938125 12.989375 5.87625 11.97875 5.8125 10.9375 C5.19138117 6.32616326 2.85476316 3.58675372 0 0 Z " fill="#0A2A57" transform="translate(83,14)"/>
<path d="M0 0 C2.72869407 0.03287583 5.2966618 0.56397771 8 1 C8 1.33 8 1.66 8 2 C6.02 2.33 4.04 2.66 2 3 C1.67 4.32 1.34 5.64 1 7 C3.97 7 6.94 7 10 7 C10.33 6.01 10.66 5.02 11 4 C11 5.32 11 6.64 11 8 C7.37 8 3.74 8 0 8 C0 6.35 0 4.7 0 3 C-0.66 2.67 -1.32 2.34 -2 2 C-1.34 1.34 -0.68 0.68 0 0 Z " fill="#1869C2" transform="translate(124,16)"/>
<path d="M0 0 C1.65 0 3.3 0 5 0 C5.33 1.32 5.66 2.64 6 4 C-0.625 5 -0.625 5 -4 5 C-4 4.34 -4 3.68 -4 3 C-3.01 3 -2.02 3 -1 3 C-0.67 2.01 -0.34 1.02 0 0 Z " fill="#CAD6DE" transform="translate(42,14)"/>
<path d="M0 0 C2.31 0 4.62 0 7 0 C7.33 1.32 7.66 2.64 8 4 C5.36 4 2.72 4 0 4 C0 2.68 0 1.36 0 0 Z " fill="#033267" transform="translate(146,18)"/>
<path d="M0 0 C1.98 0 3.96 0 6 0 C6 0.99 6 1.98 6 3 C4.68 3.33 3.36 3.66 2 4 C1.67 5.65 1.34 7.3 1 9 C0.67 9 0.34 9 0 9 C0 7.35 0 5.7 0 4 C-0.66 4 -1.32 4 -2 4 C-1.34 2.68 -0.68 1.36 0 0 Z " fill="#D4DFED" transform="translate(62,6)"/>
<path d="M0 0 C0.66 0 1.32 0 2 0 C2 1.98 2 3.96 2 6 C5.96 6 9.92 6 14 6 C14 6.33 14 6.66 14 7 C10.04 7 6.08 7 2 7 C1.67 7.99 1.34 8.98 1 10 C-0.1577506 6.52674819 -0.06866652 3.63932552 0 0 Z " fill="#1D86F1" transform="translate(122,19)"/>
<path d="M0 0 C0.66 0 1.32 0 2 0 C2 3.3 2 6.6 2 10 C1.01 10.33 0.02 10.66 -1 11 C-0.67 7.37 -0.34 3.74 0 0 Z " fill="#EEF8FB" transform="translate(85,22)"/>
<path d="M0 0 C0.33 0 0.66 0 1 0 C1.13277344 0.60328125 1.26554687 1.2065625 1.40234375 1.828125 C1.66724609 3.02695312 1.66724609 3.02695312 1.9375 4.25 C2.11152344 5.03890625 2.28554687 5.8278125 2.46484375 6.640625 C2.947556 8.76878703 3.46163178 10.88532842 4 13 C2.68 12.34 1.36 11.68 0 11 C0 7.37 0 3.74 0 0 Z " fill="#2E85E7" transform="translate(121,20)"/>
<path d="M0 0 C0.33 0 0.66 0 1 0 C1 3.3 1 6.6 1 10 C3.31 10.33 5.62 10.66 8 11 C8 11.33 8 11.66 8 12 C5.69 12.66 3.38 13.32 1 14 C-0.04976964 10.85069107 -0.10131595 8.61185544 -0.0625 5.3125 C-0.05347656 4.31863281 -0.04445312 3.32476562 -0.03515625 2.30078125 C-0.02355469 1.54152344 -0.01195312 0.78226562 0 0 Z " fill="#1573D6" transform="translate(189,6)"/>
<path d="M0 0 C0.99 0.103125 1.98 0.20625 3 0.3125 C3.66 1.3025 4.32 2.2925 5 3.3125 C4.34 3.3125 3.68 3.3125 3 3.3125 C2.67 3.9725 2.34 4.6325 2 5.3125 C1.67 4.3225 1.34 3.3325 1 2.3125 C-0.98 2.3125 -2.96 2.3125 -5 2.3125 C-3 0.3125 -3 0.3125 0 0 Z " fill="#2C82E1" transform="translate(131,14.6875)"/>
<path d="M0 0 C2.64 0 5.28 0 8 0 C8.33 0.66 8.66 1.32 9 2 C7.3603125 2.2165625 7.3603125 2.2165625 5.6875 2.4375 C2.06877013 2.88288104 2.06877013 2.88288104 -1 4 C-0.67 2.68 -0.34 1.36 0 0 Z " fill="#08255A" transform="translate(40,12)"/>
<path d="M0 0 C0.66 0.33 1.32 0.66 2 1 C2 3.64 2 6.28 2 9 C1.01 9.495 1.01 9.495 0 10 C-0.95024979 6.30458414 -0.95024979 3.69541586 0 0 Z " fill="#2D4B6E" transform="translate(83,20)"/>
<path d="M0 0 C1.98 0 3.96 0 6 0 C6 0.66 6 1.32 6 2 C5.030625 2.12375 4.06125 2.2475 3.0625 2.375 C2.051875 2.58125 1.04125 2.7875 0 3 C-0.33 3.66 -0.66 4.32 -1 5 C-0.67 3.35 -0.34 1.7 0 0 Z " fill="#053877" transform="translate(146,26)"/>
<path d="M0 0 C0.66 0 1.32 0 2 0 C2.9765625 6.0546875 2.9765625 6.0546875 3 8 C2.34 8.66 1.68 9.32 1 10 C-0.60725635 6.78548731 -0.05748185 3.56387464 0 0 Z " fill="#092355" transform="translate(74,22)"/>
<path d="M0 0 C1.10844919 3.32534757 0.84454356 5.62182575 0 9 C-0.66 9 -1.32 9 -2 9 C-2.125 5.625 -2.125 5.625 -2 2 C-1.34 1.34 -0.68 0.68 0 0 Z " fill="#F8FAFC" transform="translate(72,20)"/>
<path d="M0 0 C4.29 0 8.58 0 13 0 C13 0.33 13 0.66 13 1 C12.31292969 1.06058594 11.62585938 1.12117188 10.91796875 1.18359375 C9.56638672 1.30927734 9.56638672 1.30927734 8.1875 1.4375 C6.84751953 1.55931641 6.84751953 1.55931641 5.48046875 1.68359375 C2.87256441 1.93489767 2.87256441 1.93489767 0 3 C0 2.01 0 1.02 0 0 Z " fill="#002C6F" transform="translate(125,27)"/>
<path d="M0 0 C-0.33 0.99 -0.66 1.98 -1 3 C-3.31 3 -5.62 3 -8 3 C-8 2.34 -8 1.68 -8 1 C-5.29120665 -0.35439668 -2.99066732 -0.06501451 0 0 Z " fill="#EDF5F9" transform="translate(82,15)"/>
<path d="M0 0 C-0.66 1.32 -1.32 2.64 -2 4 C-4.64 4 -7.28 4 -10 4 C-10 3.67 -10 3.34 -10 3 C-8.02 3 -6.04 3 -4 3 C-4 2.34 -4 1.68 -4 1 C-2 0 -2 0 0 0 Z " fill="#338DEE" transform="translate(137,31)"/>
<path d="M0 0 C0.33 0 0.66 0 1 0 C1 2.31 1 4.62 1 7 C1.66 7 2.32 7 3 7 C2.67 8.32 2.34 9.64 2 11 C1.34 11 0.68 11 0 11 C0 7.37 0 3.74 0 0 Z " fill="#2D4E7C" transform="translate(88,21)"/>
</svg>
