<?xml version="1.0" encoding="UTF-8"?>
<svg version="1.1" xmlns="http://www.w3.org/2000/svg" width="256" height="80">
<path d="M0 0 C84.48 0 168.96 0 256 0 C256 26.4 256 52.8 256 80 C171.52 80 87.04 80 0 80 C0 53.6 0 27.2 0 0 Z " fill="#040304" transform="translate(0,0)"/>
<path d="M0 0 C0.66 0 1.32 0 2 0 C2.66 0.66 3.32 1.32 4 2 C5.20163249 3.04938946 6.41055126 4.0904696 7.625 5.125 C8.25664063 5.66382813 8.88828125 6.20265625 9.5390625 6.7578125 C10.02117188 7.16773438 10.50328125 7.57765625 11 8 C10.67 8.99 10.34 9.98 10 11 C9.01 11 8.02 11 7 11 C6.67 12.32 6.34 13.64 6 15 C5.01 15 4.02 15 3 15 C3 15.99 3 16.98 3 18 C3.99 18 4.98 18 6 18 C6.33 17.01 6.66 16.02 7 15 C7.99 15 8.98 15 10 15 C10 16.32 10 17.64 10 19 C9.01 19 8.02 19 7 19 C7 19.99 7 20.98 7 22 C7.99 22 8.98 22 10 22 C10.33 21.01 10.66 20.02 11 19 C12.32 19.33 13.64 19.66 15 20 C15 20.66 15 21.32 15 22 C15.99 22 16.98 22 18 22 C18 21.01 18 20.02 18 19 C16.68 18.67 15.36 18.34 14 18 C14 17.01 14 16.02 14 15 C13.01 15 12.02 15 11 15 C11.33 13.68 11.66 12.36 12 11 C12.99 11 13.98 11 15 11 C15.33 10.01 15.66 9.02 16 8 C16.66 8 17.32 8 18 8 C18.33 9.32 18.66 10.64 19 12 C20.32 12 21.64 12 23 12 C23 12.99 23 13.98 23 15 C23.99 15 24.98 15 26 15 C26 14.01 26 13.02 26 12 C25.34 12 24.68 12 24 12 C23.67 10.35 23.34 8.7 23 7 C22.01 7 21.02 7 20 7 C20 6.01 20 5.02 20 4 C20.99 4 21.98 4 23 4 C23 4.66 23 5.32 23 6 C23.99 6 24.98 6 26 6 C26 6.66 26 7.32 26 8 C26.9590625 8.37125 26.9590625 8.37125 27.9375 8.75 C30 10 30 10 30.75 12.125 C30.8325 12.74375 30.915 13.3625 31 14 C32.32 14.33 33.64 14.66 35 15 C35 15.99 35 16.98 35 18 C36.32 18.33 37.64 18.66 39 19 C39 19.99 39 20.98 39 22 C40.32 22.33 41.64 22.66 43 23 C43 24.32 43 25.64 43 27 C41.68 27 40.36 27 39 27 C38.505 29.475 38.505 29.475 38 32 C37.01 32 36.02 32 35 32 C35 32.99 35 33.98 35 35 C33.02 35.495 33.02 35.495 31 36 C30.67 34.35 30.34 32.7 30 31 C28.68 31 27.36 31 26 31 C26 29.68 26 28.36 26 27 C25.01 27 24.02 27 23 27 C23 28.32 23 29.64 23 31 C23.99 31.33 24.98 31.66 26 32 C26 32.99 26 33.98 26 35 C27.32 35.33 28.64 35.66 30 36 C30 37.32 30 38.64 30 40 C28.68 40 27.36 40 26 40 C26 41.32 26 42.64 26 44 C24.35 43.67 22.7 43.34 21 43 C21 42.01 21 41.02 21 40 C19.68 39.67 18.36 39.34 17 39 C17 38.01 17 37.02 17 36 C16.34 36 15.68 36 15 36 C15.33 36.5775 15.66 37.155 16 37.75 C17 40 17 40 17 44 C18.65 44.33 20.3 44.66 22 45 C21.67 46.32 21.34 47.64 21 49 C20.01 49 19.02 49 18 49 C17.67 50.32 17.34 51.64 17 53 C15.35 52.67 13.7 52.34 12 52 C12 51.01 12 50.02 12 49 C10.68 48.67 9.36 48.34 8 48 C8 47.01 8 46.02 8 45 C7.34 45 6.68 45 6 45 C5.67 46.32 5.34 47.64 5 49 C4.01 49 3.02 49 2 49 C1.67 50.32 1.34 51.64 1 53 C-0.65 52.67 -2.3 52.34 -4 52 C-4 51.01 -4 50.02 -4 49 C-4.99 48.67 -5.98 48.34 -7 48 C-7 46.68 -7 45.36 -7 44 C-5.68 44 -4.36 44 -3 44 C-3 45.32 -3 46.64 -3 48 C-1.68 48 -0.36 48 1 48 C1 46.68 1 45.36 1 44 C-0.32 43.67 -1.64 43.34 -3 43 C-3.84098656 38.98195309 -4.05404945 35.98196457 -3 32 C-3.99 32 -4.98 32 -6 32 C-6 30.35 -6 28.7 -6 27 C-4.68 27 -3.36 27 -2 27 C-2 25.68 -2 24.36 -2 23 C-0.68 23 0.64 23 2 23 C1.34 22.01 0.68 21.02 0 20 C-0.4640625 18.948125 -0.4640625 18.948125 -0.9375 17.875 C-1.91908645 15.65504271 -1.91908645 15.65504271 -5 15 C-4.67 13.68 -4.34 12.36 -4 11 C-3.34 11 -2.68 11 -2 11 C-2.66 10.01 -3.32 9.02 -4 8 C-4 6.68 -4 5.36 -4 4 C-2.68 3.67 -1.36 3.34 0 3 C0 2.01 0 1.02 0 0 Z " fill="#2C4684" transform="translate(52,14)"/>
<path d="M0 0 C0.66 0 1.32 0 2 0 C2 1.32 2 2.64 2 4 C3.65 4 5.3 4 7 4 C7 2.68 7 1.36 7 0 C8.32 0 9.64 0 11 0 C11 0.99 11 1.98 11 3 C11.99 3 12.98 3 14 3 C14.33 4.32 14.66 5.64 15 7 C15.99 7 16.98 7 18 7 C18 9.64 18 12.28 18 15 C16.68 15 15.36 15 14 15 C14 16.65 14 18.3 14 20 C14.99 20 15.98 20 17 20 C16.96744792 21.98567708 16.93489583 23.97135417 16.90234375 25.95703125 C16.91736783 28.20305461 16.91736783 28.20305461 18 31 C18.99 31.33 19.98 31.66 21 32 C21 33.32 21 34.64 21 36 C19.68 36 18.36 36 17 36 C17 34.68 17 33.36 17 32 C15.68 32 14.36 32 13 32 C12.67 32.99 12.34 33.98 12 35 C12 34.34 12 33.68 12 33 C11.34 33 10.68 33 10 33 C10 33.99 10 34.98 10 36 C8.35 36 6.7 36 5 36 C5 37.65 5 39.3 5 41 C3.68 41 2.36 41 1 41 C1 39.35 1 37.7 1 36 C-0.32 36 -1.64 36 -3 36 C-3 34.68 -3 33.36 -3 32 C-4.32 32 -5.64 32 -7 32 C-6.6875 30.0625 -6.6875 30.0625 -6 28 C-5.01 27.67 -4.02 27.34 -3 27 C-3 26.01 -3 25.02 -3 24 C-4.32 24.33 -5.64 24.66 -7 25 C-7 25.99 -7 26.98 -7 28 C-8.65 27.67 -10.3 27.34 -12 27 C-12 26.34 -12 25.68 -12 25 C-12.66 25 -13.32 25 -14 25 C-14 23.68 -14 22.36 -14 21 C-12.68 21 -11.36 21 -10 21 C-10 21.99 -10 22.98 -10 24 C-9.01 24 -8.02 24 -7 24 C-7 23.01 -7 22.02 -7 21 C-7.99 20.67 -8.98 20.34 -10 20 C-10 19.01 -10 18.02 -10 17 C-8.68 17 -7.36 17 -6 17 C-6 17.99 -6 18.98 -6 20 C-5.01 20 -4.02 20 -3 20 C-3 18.68 -3 17.36 -3 16 C-3.99 16 -4.98 16 -6 16 C-6.33 15.01 -6.66 14.02 -7 13 C-7.66 12.67 -8.32 12.34 -9 12 C-9 11.01 -9 10.02 -9 9 C-8.01 9 -7.02 9 -6 9 C-6 9.66 -6 10.32 -6 11 C-4.68 11 -3.36 11 -2 11 C-2.495 10.566875 -2.99 10.13375 -3.5 9.6875 C-5 8 -5 8 -5 5 C-4.01 5 -3.02 5 -2 5 C-2 5.99 -2 6.98 -2 8 C-0.68 8 0.64 8 2 8 C2 8.99 2 9.98 2 11 C2.66 11 3.32 11 4 11 C4.33 10.34 4.66 9.68 5 9 C5.33 8.67 5.66 8.34 6 8 C5.401875 7.87625 4.80375 7.7525 4.1875 7.625 C2 7 2 7 -1 5 C-0.67 3.35 -0.34 1.7 0 0 Z " fill="#192F63" transform="translate(32,26)"/>
<path d="M0 0 C0.99 0.66 1.98 1.32 3 2 C3 2.66 3 3.32 3 4 C2.34 4.33 1.68 4.66 1 5 C1 5.99 1 6.98 1 8 C1.804375 8.639375 2.60875 9.27875 3.4375 9.9375 C6 12 6 12 6.8125 14.25 C6.874375 14.8275 6.93625 15.405 7 16 C5.68 16 4.36 16 3 16 C3 14.68 3 13.36 3 12 C1.68 12.33 0.36 12.66 -1 13 C-1 11.35 -1 9.7 -1 8 C-1.99 8 -2.98 8 -4 8 C-4 7.01 -4 6.02 -4 5 C-5.32 5 -6.64 5 -8 5 C-7.67 6.98 -7.34 8.96 -7 11 C-7.33 10.34 -7.66 9.68 -8 9 C-9.65 9 -11.3 9 -13 9 C-13 7.68 -13 6.36 -13 5 C-13.99 5.495 -13.99 5.495 -15 6 C-15.65213292 8.02463255 -15.65213292 8.02463255 -16 10 C-13.66785852 11.20628008 -11.50357861 12.1654738 -9 13 C-9.33 13.66 -9.66 14.32 -10 15 C-10.99 15.33 -11.98 15.66 -13 16 C-13 15.01 -13 14.02 -13 13 C-14.32 13 -15.64 13 -17 13 C-17 12.01 -17 11.02 -17 10 C-17.99 10 -18.98 10 -20 10 C-20 10.99 -20 11.98 -20 13 C-19.01 13.33 -18.02 13.66 -17 14 C-17 14.66 -17 15.32 -17 16 C-18.32 16 -19.64 16 -21 16 C-21 15.34 -21 14.68 -21 14 C-21.99 14 -22.98 14 -24 14 C-24 14.99 -24 15.98 -24 17 C-23.01 17.33 -22.02 17.66 -21 18 C-21 18.99 -21 19.98 -21 21 C-20.01 21 -19.02 21 -18 21 C-18 22.32 -18 23.64 -18 25 C-18.99 25 -19.98 25 -21 25 C-21 24.01 -21 23.02 -21 22 C-22.32 22 -23.64 22 -25 22 C-24.67 22.99 -24.34 23.98 -24 25 C-23.34 25.33 -22.68 25.66 -22 26 C-22 26.99 -22 27.98 -22 29 C-22.99 29 -23.98 29 -25 29 C-25 28.01 -25 27.02 -25 26 C-26.32 26 -27.64 26 -29 26 C-29 27.32 -29 28.64 -29 30 C-29.66 30 -30.32 30 -31 30 C-31.33 29.01 -31.66 28.02 -32 27 C-33.65 27 -35.3 27 -37 27 C-37 26.34 -37 25.68 -37 25 C-36.01 25 -35.02 25 -34 25 C-33.67 23.68 -33.34 22.36 -33 21 C-34.32 21 -35.64 21 -37 21 C-37 19.35 -37 17.7 -37 16 C-36.01 16 -35.02 16 -34 16 C-34 15.01 -34 14.02 -34 13 C-34.66 13 -35.32 13 -36 13 C-36 12.34 -36 11.68 -36 11 C-34.68 11 -33.36 11 -32 11 C-32 11.66 -32 12.32 -32 13 C-31.34 13 -30.68 13 -30 13 C-30.33 11.02 -30.66 9.04 -31 7 C-30.34 7 -29.68 7 -29 7 C-28.34 5.02 -27.68 3.04 -27 1 C-26.34 1 -25.68 1 -25 1 C-25 2.65 -25 4.3 -25 6 C-22.36 5.34 -19.72 4.68 -17 4 C-17 3.01 -17 2.02 -17 1 C-16.01 1 -15.02 1 -14 1 C-14 1.66 -14 2.32 -14 3 C-11.50914896 3.06919031 -9.35167374 3.09591102 -6.9375 2.4375 C-4.64383315 1.91957523 -3.21398425 2.2883622 -1 3 C-0.67 2.01 -0.34 1.02 0 0 Z M-26 6 C-26.33 6.66 -26.66 7.32 -27 8 C-26.34 8 -25.68 8 -25 8 C-25.33 7.34 -25.66 6.68 -26 6 Z " fill="#020610" transform="translate(47,21)"/>
<path d="M0 0 C0.99 0 1.98 0 3 0 C3 0.66 3 1.32 3 2 C3.99 2 4.98 2 6 2 C6 2.66 6 3.32 6 4 C6.639375 4.2475 7.27875 4.495 7.9375 4.75 C10 6 10 6 10.75 8.125 C10.87375 9.053125 10.87375 9.053125 11 10 C12.32 10.33 13.64 10.66 15 11 C15 11.99 15 12.98 15 14 C16.32 14.33 17.64 14.66 19 15 C19 15.99 19 16.98 19 18 C20.32 18.33 21.64 18.66 23 19 C23 20.32 23 21.64 23 23 C21.68 23 20.36 23 19 23 C18.67 24.65 18.34 26.3 18 28 C17.01 28 16.02 28 15 28 C15 28.99 15 29.98 15 31 C13.68 31.33 12.36 31.66 11 32 C10.505 29.525 10.505 29.525 10 27 C8.68 27 7.36 27 6 27 C6.5859375 20.84765625 6.5859375 20.84765625 7 19 C7.66 18.67 8.32 18.34 9 18 C9.33 17.01 9.66 16.02 10 15 C6.88214887 15.64644661 6.88214887 15.64644661 6 18 C5.01 18 4.02 18 3 18 C2.67 17.01 2.34 16.02 2 15 C-0.31 15 -2.62 15 -5 15 C-5.33 13.68 -5.66 12.36 -6 11 C-6.99 11 -7.98 11 -9 11 C-8.67 9.68 -8.34 8.36 -8 7 C-7.01 7 -6.02 7 -5 7 C-4.67 6.01 -4.34 5.02 -4 4 C-3.34 4 -2.68 4 -2 4 C-1.67 5.32 -1.34 6.64 -1 8 C0.32 8 1.64 8 3 8 C3 8.99 3 9.98 3 11 C3.99 11 4.98 11 6 11 C6 10.01 6 9.02 6 8 C5.34 8 4.68 8 4 8 C3.67 6.35 3.34 4.7 3 3 C2.01 3 1.02 3 0 3 C0 2.01 0 1.02 0 0 Z " fill="#340B0A" transform="translate(72,18)"/>
<path d="M0 0 C1.32 0.33 2.64 0.66 4 1 C4 1.99 4 2.98 4 4 C4.99 4 5.98 4 7 4 C7.33 3.01 7.66 2.02 8 1 C8.99 1 9.98 1 11 1 C10.67 2.32 10.34 3.64 10 5 C9.34 5 8.68 5 8 5 C7.67 6.32 7.34 7.64 7 9 C6.01 9 5.02 9 4 9 C4 10.32 4 11.64 4 13 C4.99 13.33 5.98 13.66 7 14 C7 14.99 7 15.98 7 17 C8.32 17.33 9.64 17.66 11 18 C11 19.32 11 20.64 11 22 C9.68 22 8.36 22 7 22 C7 23.32 7 24.64 7 26 C5.35 25.67 3.7 25.34 2 25 C2 24.01 2 23.02 2 22 C0.68 21.67 -0.64 21.34 -2 21 C-2 20.01 -2 19.02 -2 18 C-2.99 17.67 -3.98 17.34 -5 17 C-5 15.68 -5 14.36 -5 13 C-6.32 13 -7.64 13 -9 13 C-9 11.68 -9 10.36 -9 9 C-7.68 9 -6.36 9 -5 9 C-5 7.68 -5 6.36 -5 5 C-6.32 4.67 -7.64 4.34 -9 4 C-8.67 3.01 -8.34 2.02 -8 1 C-6.02 1.495 -6.02 1.495 -4 2 C-4 2.66 -4 3.32 -4 4 C-3.01 4 -2.02 4 -1 4 C-0.67 2.68 -0.34 1.36 0 0 Z " fill="#A9A3A6" transform="translate(71,32)"/>
<path d="M0 0 C0.66 0 1.32 0 2 0 C2 1.32 2 2.64 2 4 C3.65 4 5.3 4 7 4 C7 2.68 7 1.36 7 0 C8.32 0 9.64 0 11 0 C11 0.99 11 1.98 11 3 C11.99 3 12.98 3 14 3 C14.33 4.32 14.66 5.64 15 7 C15.99 7 16.98 7 18 7 C18 9.64 18 12.28 18 15 C16.68 15 15.36 15 14 15 C14 16.65 14 18.3 14 20 C13.360625 20.12375 12.72125 20.2475 12.0625 20.375 C11.381875 20.58125 10.70125 20.7875 10 21 C9.67 21.66 9.34 22.32 9 23 C8.01 23 7.02 23 6 23 C6 22.01 6 21.02 6 20 C6.99 20 7.98 20 9 20 C9 19.01 9 18.02 9 17 C5.99740483 16.66781808 5.99740483 16.66781808 4.3125 18.5 C3.879375 18.995 3.44625 19.49 3 20 C2.67 18.68 2.34 17.36 2 16 C0.68 16 -0.64 16 -2 16 C-2.33 15.01 -2.66 14.02 -3 13 C-3.66 12.34 -4.32 11.68 -5 11 C-4.01 11 -3.02 11 -2 11 C-2.7425 10.3503125 -2.7425 10.3503125 -3.5 9.6875 C-5 8 -5 8 -5 5 C-4.01 5 -3.02 5 -2 5 C-2 5.99 -2 6.98 -2 8 C-0.68 8 0.64 8 2 8 C2 8.99 2 9.98 2 11 C2.66 11 3.32 11 4 11 C4.33 10.34 4.66 9.68 5 9 C5.33 8.67 5.66 8.34 6 8 C5.401875 7.87625 4.80375 7.7525 4.1875 7.625 C2 7 2 7 -1 5 C-0.67 3.35 -0.34 1.7 0 0 Z " fill="#121E43" transform="translate(32,26)"/>
<path d="M0 0 C0.66 0 1.32 0 2 0 C2.66 0.66 3.32 1.32 4 2 C5.20163249 3.04938946 6.41055126 4.0904696 7.625 5.125 C8.25664063 5.66382813 8.88828125 6.20265625 9.5390625 6.7578125 C10.02117188 7.16773438 10.50328125 7.57765625 11 8 C10.67 8.99 10.34 9.98 10 11 C9.01 11 8.02 11 7 11 C6.67 12.32 6.34 13.64 6 15 C5.01 15 4.02 15 3 15 C3 15.99 3 16.98 3 18 C3.99 18 4.98 18 6 18 C6.33 17.01 6.66 16.02 7 15 C7.99 15 8.98 15 10 15 C10 16.32 10 17.64 10 19 C9.01 19 8.02 19 7 19 C7 19.99 7 20.98 7 22 C9.31 22.33 11.62 22.66 14 23 C14 24.32 14 25.64 14 27 C12.68 27 11.36 27 10 27 C9.67 27.99 9.34 28.98 9 30 C9 29.34 9 28.68 9 28 C8.01 27.67 7.02 27.34 6 27 C5.67 26.01 5.34 25.02 5 24 C4.01 23.67 3.02 23.34 2 23 C0 20 0 20 -0.9375 17.875 C-1.91908645 15.65504271 -1.91908645 15.65504271 -5 15 C-4.67 13.68 -4.34 12.36 -4 11 C-3.34 11 -2.68 11 -2 11 C-2.66 10.01 -3.32 9.02 -4 8 C-4 6.68 -4 5.36 -4 4 C-2.68 3.67 -1.36 3.34 0 3 C0 2.01 0 1.02 0 0 Z " fill="#48527E" transform="translate(52,14)"/>
<path d="M0 0 C1.32 0.33 2.64 0.66 4 1 C4 1.99 4 2.98 4 4 C5.32 4.33 6.64 4.66 8 5 C8 6.32 8 7.64 8 9 C6.68 9 5.36 9 4 9 C4 10.32 4 11.64 4 13 C4.99 13 5.98 13 7 13 C7 14.32 7 15.64 7 17 C5.35 17 3.7 17 2 17 C2 16.01 2 15.02 2 14 C1.34 14 0.68 14 0 14 C-0.33 15.32 -0.66 16.64 -1 18 C-1.99 18 -2.98 18 -4 18 C-4.33 19.32 -4.66 20.64 -5 22 C-6.65 21.67 -8.3 21.34 -10 21 C-10 20.01 -10 19.02 -10 18 C-10.99 17.67 -11.98 17.34 -13 17 C-13 15.68 -13 14.36 -13 13 C-11.68 13 -10.36 13 -9 13 C-9 14.32 -9 15.64 -9 17 C-7.68 17 -6.36 17 -5 17 C-5 15.68 -5 14.36 -5 13 C-6.32 12.67 -7.64 12.34 -9 12 C-9.625 9.125 -9.625 9.125 -10 6 C-8 4 -8 4 -4.375 3.875 C-2.704375 3.936875 -2.704375 3.936875 -1 4 C-0.67 2.68 -0.34 1.36 0 0 Z " fill="#61697A" transform="translate(58,45)"/>
<path d="M0 0 C3.69879153 1.16443437 5.24663599 1.8273867 7.375 5.0625 C8.09025283 9.43348953 7.88139423 11.31873347 5.375 15 C1.20582591 17.86630719 -0.63597559 17.85440864 -5.625 17.0625 C-8.86372519 14.39055171 -9.51415865 12.68321155 -10.25 8.5625 C-9.625 5.0625 -9.625 5.0625 -7.0625 2.0625 C-3.625 0.0625 -3.625 0.0625 0 0 Z " fill="#0E0E0E" transform="translate(129.625,15.9375)"/>
<path d="M0 0 C2.4375 1.625 2.4375 1.625 4 4 C4.59172793 8.06812955 4.37276489 10.27000208 2.5 13.9375 C-0.54342325 16.44832418 -2.24307745 16.68682599 -6.09765625 16.4140625 C-8 16 -8 16 -10.4375 14.4375 C-12.53567796 11.16434238 -13 8.88582276 -13 5 C-9.25333712 -0.9429825 -6.7508412 -1.51311958 0 0 Z " fill="#0C0C0C" transform="translate(202,17)"/>
<path d="M0 0 C0.99 0 1.98 0 3 0 C3 1.65 3 3.3 3 5 C3.928125 4.773125 4.85625 4.54625 5.8125 4.3125 C9 4 9 4 10.6875 5.15625 C12.43947376 7.61735599 12.30396618 9.19820149 12.1875 12.1875 C12.16042969 13.08855469 12.13335937 13.98960938 12.10546875 14.91796875 C12.07066406 15.60503906 12.03585938 16.29210937 12 17 C11.34 17 10.68 17 10 17 C9.505 12.05 9.505 12.05 9 7 C7.35 7 5.7 7 4 7 C3.67 10.3 3.34 13.6 3 17 C2.01 17 1.02 17 0 17 C-0.33 16.34 -0.66 15.68 -1 15 C-1.99 15.66 -2.98 16.32 -4 17 C-10.06706793 17.54170249 -10.06706793 17.54170249 -12.9375 15.875 C-14.52990283 13.06487736 -14.45319325 11.17235276 -14 8 C-12.04078918 5.24259218 -10.88912957 4.18238555 -7.5625 3.5 C-4.21675207 4.15282886 -2.48435932 5.72858576 0 8 C0 5.36 0 2.72 0 0 Z " fill="#101010" transform="translate(143,42)"/>
<path d="M0 0 C1.32 0 2.64 0 4 0 C4 0.99 4 1.98 4 3 C5.134375 3.12375 6.26875 3.2475 7.4375 3.375 C8.613125 3.58125 9.78875 3.7875 11 4 C11.33 4.66 11.66 5.32 12 6 C12.99 6.33 13.98 6.66 15 7 C15 8.32 15 9.64 15 11 C16.32 11 17.64 11 19 11 C19.33 11.99 19.66 12.98 20 14 C18.35 14.33 16.7 14.66 15 15 C15 17.97 15 20.94 15 24 C13.68 24 12.36 24 11 24 C11 22.35 11 20.7 11 19 C9.68 19 8.36 19 7 19 C7 17.68 7 16.36 7 15 C5.68 15 4.36 15 3 15 C3.3125 13.0625 3.3125 13.0625 4 11 C4.99 10.67 5.98 10.34 7 10 C7 9.01 7 8.02 7 7 C5.68 7.33 4.36 7.66 3 8 C3 8.99 3 9.98 3 11 C1.35 10.67 -0.3 10.34 -2 10 C-2 9.34 -2 8.68 -2 8 C-2.66 8 -3.32 8 -4 8 C-4 6.68 -4 5.36 -4 4 C-2.68 4 -1.36 4 0 4 C0 4.99 0 5.98 0 7 C0.99 7 1.98 7 3 7 C3 6.01 3 5.02 3 4 C2.01 3.67 1.02 3.34 0 3 C0 2.01 0 1.02 0 0 Z " fill="#102557" transform="translate(22,43)"/>
<path d="M0 0 C0.99 0.66 1.98 1.32 3 2 C3.37125 1.484375 3.7425 0.96875 4.125 0.4375 C6 -1 6 -1 9.1875 -0.6875 C10.115625 -0.460625 11.04375 -0.23375 12 0 C12.33 1.32 12.66 2.64 13 4 C12.34 4 11.68 4 11 4 C10.67 3.34 10.34 2.68 10 2 C7.97536745 1.34786708 7.97536745 1.34786708 6 1 C6.72268235 4.2985139 6.72268235 4.2985139 10.0625 5.6875 C11.5165625 6.3371875 11.5165625 6.3371875 13 7 C12.67 8.65 12.34 10.3 12 12 C7.32538149 12.32613618 4.83325617 11.70582788 1 9 C0.67 9.99 0.34 10.98 0 12 C-6.0546875 12.1953125 -6.0546875 12.1953125 -8 12 C-10 10 -10 10 -10.375 6.0625 C-10.29026119 3.14960354 -10.22490881 2.28546119 -8.375 -0.0625 C-5.18310525 -1.32245845 -3.27575855 -0.90606087 0 0 Z " fill="#1E1E1E" transform="translate(235,47)"/>
<path d="M0 0 C0.99 0.66 1.98 1.32 3 2 C3 2.66 3 3.32 3 4 C2.01 4.495 2.01 4.495 1 5 C1 5.99 1 6.98 1 8 C1.804375 8.639375 2.60875 9.27875 3.4375 9.9375 C6 12 6 12 6.8125 14.25 C6.874375 14.8275 6.93625 15.405 7 16 C5.68 16 4.36 16 3 16 C3 14.68 3 13.36 3 12 C1.68 12.33 0.36 12.66 -1 13 C-1 11.35 -1 9.7 -1 8 C-1.99 8 -2.98 8 -4 8 C-4 7.01 -4 6.02 -4 5 C-5.32 5 -6.64 5 -8 5 C-7.67 6.98 -7.34 8.96 -7 11 C-7.33 10.34 -7.66 9.68 -8 9 C-9.65 9 -11.3 9 -13 9 C-13 7.68 -13 6.36 -13 5 C-13.99 5.495 -13.99 5.495 -15 6 C-15.65213292 8.02463255 -15.65213292 8.02463255 -16 10 C-13.66785852 11.20628008 -11.50357861 12.1654738 -9 13 C-9.33 13.66 -9.66 14.32 -10 15 C-10.99 15.33 -11.98 15.66 -13 16 C-13 15.01 -13 14.02 -13 13 C-14.32 13 -15.64 13 -17 13 C-17 12.01 -17 11.02 -17 10 C-17.99 10 -18.98 10 -20 10 C-20 10.99 -20 11.98 -20 13 C-19.01 13.33 -18.02 13.66 -17 14 C-17 14.66 -17 15.32 -17 16 C-21 16 -21 16 -22.8125 14.75 C-24 13 -24 13 -23.6875 10.8125 C-23.3471875 9.9153125 -23.3471875 9.9153125 -23 9 C-22.34 9 -21.68 9 -21 9 C-20.896875 8.360625 -20.79375 7.72125 -20.6875 7.0625 C-20.460625 6.381875 -20.23375 5.70125 -20 5 C-19.01 4.67 -18.02 4.34 -17 4 C-17 3.01 -17 2.02 -17 1 C-16.01 1 -15.02 1 -14 1 C-14 1.66 -14 2.32 -14 3 C-11.50914896 3.06919031 -9.35167374 3.09591102 -6.9375 2.4375 C-4.64383315 1.91957523 -3.21398425 2.2883622 -1 3 C-0.67 2.01 -0.34 1.02 0 0 Z " fill="#02030C" transform="translate(47,21)"/>
<path d="M0 0 C1.32 0.33 2.64 0.66 4 1 C4 1.99 4 2.98 4 4 C5.32 4.33 6.64 4.66 8 5 C8 6.32 8 7.64 8 9 C6.68 9 5.36 9 4 9 C3.67 10.65 3.34 12.3 3 14 C2.01 14 1.02 14 0 14 C0 14.99 0 15.98 0 17 C-1.32 17.33 -2.64 17.66 -4 18 C-4.33 16.35 -4.66 14.7 -5 13 C-6.32 13 -7.64 13 -9 13 C-8.50769231 5.49230769 -8.50769231 5.49230769 -5.9375 3 C-5.298125 2.67 -4.65875 2.34 -4 2 C-4 2.66 -4 3.32 -4 4 C-3.01 4 -2.02 4 -1 4 C-0.67 2.68 -0.34 1.36 0 0 Z " fill="#893337" transform="translate(87,32)"/>
<path d="M0 0 C0.08119503 2.24940295 0.13927819 4.49964871 0.1875 6.75 C0.22230469 8.00296875 0.25710937 9.2559375 0.29296875 10.546875 C-0.01338843 14.15780496 -0.33915287 15.58104807 -3 18 C-6.6875 18.25 -6.6875 18.25 -10 18 C-10.66 16.68 -11.32 15.36 -12 14 C-11.34 14 -10.68 14 -10 14 C-10 14.66 -10 15.32 -10 16 C-6.535 15.505 -6.535 15.505 -3 15 C-3 14.01 -3 13.02 -3 12 C-4.093125 12.061875 -5.18625 12.12375 -6.3125 12.1875 C-10 12 -10 12 -11.9375 10.9375 C-13.63335287 7.84506242 -13.43060657 5.44485259 -13 2 C-9.78170514 -2.47762763 -4.78491157 -0.84860611 0 0 Z " fill="#C0C0C0" transform="translate(218,47)"/>
<path d="M0 0 C1.9375 1.25 1.9375 1.25 3 3 C3 4.65 3 6.3 3 8 C-1.62 8 -6.24 8 -11 8 C-10.34 9.65 -9.68 11.3 -9 13 C-6.69 13.33 -4.38 13.66 -2 14 C-1.54625 13.34 -1.0925 12.68 -0.625 12 C-0.08875 11.34 0.4475 10.68 1 10 C1.66 10 2.32 10 3 10 C2.42655063 12.86724686 2.1385485 13.8614515 0 16 C-3.05818559 16.56086415 -5.93770467 16.52216759 -9 16 C-12.35352755 13.30081929 -12.90377072 11.68563364 -13.5 7.4375 C-12.9257958 3.48984615 -12.11700276 2.38359035 -9 0 C-5.85000502 -1.57499749 -3.36459118 -0.70833498 0 0 Z " fill="#C9C9C9" transform="translate(163,17)"/>
<path d="M0 0 C2.8125 0.875 2.8125 0.875 4.8125 2.875 C5.35837156 8.87958716 5.35837156 8.87958716 3.75 11.8125 C0.65756242 13.50835287 -1.74264741 13.30560657 -5.1875 12.875 C-7.56216282 10.80674529 -8.07435647 9.44071765 -8.6875 6.375 C-8.1875 3.875 -8.1875 3.875 -6.0625 1.5 C-3.1875 -0.125 -3.1875 -0.125 0 0 Z " fill="#0A0A0A" transform="translate(198.1875,46.125)"/>
<path d="M0 0 C2.375 0.875 2.375 0.875 5.375 2.875 C5.74533222 6.26971203 5.98421702 8.76407484 4.3125 11.8125 C1.25523824 13.4890629 -1.2156288 13.24028977 -4.625 12.875 C-6.5625 11.75 -6.5625 11.75 -7.625 9.875 C-8.125 6.9375 -8.125 6.9375 -7.625 3.875 C-5.11426889 1.07732819 -3.82527081 -0.18215575 0 0 Z " fill="#090909" transform="translate(178.625,46.125)"/>
<path d="M0 0 C1.65 0 3.3 0 5 0 C5.50757862 1.41396902 6.00574925 2.83131729 6.5 4.25 C6.7784375 5.03890625 7.056875 5.8278125 7.34375 6.640625 C8 9 8 9 8 13 C9.65 13.33 11.3 13.66 13 14 C12.67 15.32 12.34 16.64 12 18 C11.01 18 10.02 18 9 18 C8.67 19.32 8.34 20.64 8 22 C6.35 21.67 4.7 21.34 3 21 C3.33 18.36 3.66 15.72 4 13 C3.01 13 2.02 13 1 13 C1 11.68 1 10.36 1 9 C2.32 9 3.64 9 5 9 C4.73323796 7.01508358 4.73323796 7.01508358 4 5 C3.01 4.67 2.02 4.34 1 4 C0.3125 1.9375 0.3125 1.9375 0 0 Z " fill="#713434" transform="translate(61,45)"/>
<path d="M0 0 C0.66 0 1.32 0 2 0 C2.66 0.66 3.32 1.32 4 2 C5.20163249 3.04938946 6.41055126 4.0904696 7.625 5.125 C8.25664063 5.66382813 8.88828125 6.20265625 9.5390625 6.7578125 C10.02117188 7.16773438 10.50328125 7.57765625 11 8 C10.67 8.99 10.34 9.98 10 11 C9.01 11 8.02 11 7 11 C6.67 11.99 6.34 12.98 6 14 C6 13.34 6 12.68 6 12 C4.02 12.66 2.04 13.32 0 14 C-4 8.5 -4 8.5 -4 4 C-2.68 3.67 -1.36 3.34 0 3 C0 2.01 0 1.02 0 0 Z " fill="#3E3C3C" transform="translate(52,14)"/>
<path d="M0 0 C0 0.99 0 1.98 0 3 C1.32 3.33 2.64 3.66 4 4 C4 5.32 4 6.64 4 8 C2.68 8 1.36 8 0 8 C0 9.32 0 10.64 0 12 C-1.65 11.67 -3.3 11.34 -5 11 C-5 10.01 -5 9.02 -5 8 C-6.32 7.67 -7.64 7.34 -9 7 C-8.67 4.36 -8.34 1.72 -8 -1 C-4.59745511 -2.2151946 -3.06748874 -1.86240388 0 0 Z " fill="#5E1D1F" transform="translate(78,46)"/>
<path d="M0 0 C0.66 0 1.32 0 2 0 C2.33 0.99 2.66 1.98 3 3 C3.99 3 4.98 3 6 3 C6.66 3.33 7.32 3.66 8 4 C8 3.01 8 2.02 8 1 C8.66 1 9.32 1 10 1 C10.33 2.32 10.66 3.64 11 5 C10.01 5.33 9.02 5.66 8 6 C8.99 6.99 9.98 7.98 11 9 C10.67 9.66 10.34 10.32 10 11 C8.9275 10.814375 7.855 10.62875 6.75 10.4375 C3.50041391 10.05838162 1.99531456 10.11249939 -1 11 C-1.66 10.67 -2.32 10.34 -3 10 C-3 9.34 -3 8.68 -3 8 C-3.99 8 -4.98 8 -6 8 C-6 8.99 -6 9.98 -6 11 C-6.99 11 -7.98 11 -9 11 C-8.67 9.68 -8.34 8.36 -8 7 C-7.34 7 -6.68 7 -6 7 C-6 6.01 -6 5.02 -6 4 C-4.35 4 -2.7 4 -1 4 C-1 4.66 -1 5.32 -1 6 C-0.01 6.33 0.98 6.66 2 7 C1.34 6.01 0.68 5.02 0 4 C0 2.68 0 1.36 0 0 Z " fill="#0D152C" transform="translate(36,14)"/>
<path d="M0 0 C1.32 0.33 2.64 0.66 4 1 C4 1.99 4 2.98 4 4 C5.32 4.33 6.64 4.66 8 5 C8 6.32 8 7.64 8 9 C6.68 9 5.36 9 4 9 C3.67 10.32 3.34 11.64 3 13 C1.68 12.67 0.36 12.34 -1 12 C-1 11.01 -1 10.02 -1 9 C-2.32 8.67 -3.64 8.34 -5 8 C-4.67 6.68 -4.34 5.36 -4 4 C-3.01 4 -2.02 4 -1 4 C-0.67 2.68 -0.34 1.36 0 0 Z " fill="#A29DA1" transform="translate(58,45)"/>
<path d="M0 0 C3.62624366 0.28441127 4.72004636 0.6233558 7.1875 3.25 C7.578125 6.60546875 7.578125 6.60546875 7.4375 10.4375 C7.40140625 11.70980469 7.3653125 12.98210938 7.328125 14.29296875 C7.25851563 15.75669922 7.25851563 15.75669922 7.1875 17.25 C6.5275 17.25 5.8675 17.25 5.1875 17.25 C5.12691406 16.32316406 5.06632813 15.39632813 5.00390625 14.44140625 C4.92011719 13.24386719 4.83632812 12.04632813 4.75 10.8125 C4.66878906 9.61753906 4.58757812 8.42257813 4.50390625 7.19140625 C4.51093886 4.36429756 4.51093886 4.36429756 3.1875 3.25 C0.1875 3.08333333 0.1875 3.08333333 -2.8125 3.25 C-4.69074891 5.12824891 -4.20352397 8.28935276 -4.375 10.8125 C-4.50068359 12.60880859 -4.50068359 12.60880859 -4.62890625 14.44140625 C-4.68949219 15.36824219 -4.75007812 16.29507813 -4.8125 17.25 C-5.8025 17.25 -6.7925 17.25 -7.8125 17.25 C-7.8125 11.97 -7.8125 6.69 -7.8125 1.25 C-6.4925 1.25 -5.1725 1.25 -3.8125 1.25 C-2.8125 0.25 -2.8125 0.25 0 0 Z " fill="#B1B1B1" transform="translate(216.8125,15.75)"/>
<path d="M0 0 C2 2 2 2 2 6 C-1.3 6 -4.6 6 -8 6 C-7.34 7.32 -6.68 8.64 -6 10 C-4.02 10 -2.04 10 0 10 C0 9.34 0 8.68 0 8 C0.66 8.33 1.32 8.66 2 9 C1.01 10.485 1.01 10.485 0 12 C-1.875 12.36328125 -1.875 12.36328125 -4 12.3125 C-4.70125 12.30863281 -5.4025 12.30476563 -6.125 12.30078125 C-8 12 -8 12 -10 10 C-10.67973856 2.8627451 -10.67973856 2.8627451 -8.375 -0.0625 C-5.19296594 -1.31856608 -3.25787048 -0.92070253 0 0 Z " fill="#B1B1B1" transform="translate(235,47)"/>
<path d="M0 0 C2.875 0.875 2.875 0.875 4.875 2.875 C4.875 4.195 4.875 5.515 4.875 6.875 C1.575 6.875 -1.725 6.875 -5.125 6.875 C-4.465 8.195 -3.805 9.515 -3.125 10.875 C-1.475 10.875 0.175 10.875 1.875 10.875 C2.205 10.215 2.535 9.555 2.875 8.875 C3.535 8.875 4.195 8.875 4.875 8.875 C4.215 10.195 3.555 11.515 2.875 12.875 C-3.5032235 13.23603152 -3.5032235 13.23603152 -6.0625 11.75 C-7.65490283 8.93987736 -7.57819325 7.04735276 -7.125 3.875 C-4.91145252 0.55467877 -4.03541124 -0.16141645 0 0 Z " fill="#BABABA" transform="translate(122.125,46.125)"/>
<path d="M0 0 C2.4375 1.625 2.4375 1.625 4 4 C4.59172793 8.06812955 4.37276489 10.27000208 2.5 13.9375 C-0.54342325 16.44832418 -2.24307745 16.68682599 -6.09765625 16.4140625 C-8 16 -8 16 -10.4375 14.4375 C-12.53567796 11.16434238 -13 8.88582276 -13 5 C-9.25333712 -0.9429825 -6.7508412 -1.51311958 0 0 Z M-10 3 C-10.47722472 5.09842369 -10.47722472 5.09842369 -10.375 7.4375 C-10.38273438 8.21996094 -10.39046875 9.00242187 -10.3984375 9.80859375 C-9.90799449 12.50603031 -9.22560233 13.42417123 -7 15 C-1.95434998 14.80862516 -1.95434998 14.80862516 2 12 C2.13670458 9.85006523 2.13670458 9.85006523 1.8125 7.5 C1.73644531 6.7059375 1.66039062 5.911875 1.58203125 5.09375 C1.14041531 2.62193588 1.14041531 2.62193588 -2 1 C-5.75698557 0.62430144 -6.75366476 0.8357765 -10 3 Z " fill="#D1D1D1" transform="translate(202,17)"/>
<path d="M0 0 C3.69879153 1.16443437 5.24663599 1.8273867 7.375 5.0625 C8.09025283 9.43348953 7.88139423 11.31873347 5.375 15 C1.20582591 17.86630719 -0.63597559 17.85440864 -5.625 17.0625 C-8.86372519 14.39055171 -9.51415865 12.68321155 -10.25 8.5625 C-9.625 5.0625 -9.625 5.0625 -7.0625 2.0625 C-3.625 0.0625 -3.625 0.0625 0 0 Z M-6 3.625 C-7.96296842 6.06842927 -7.96296842 6.06842927 -7.5625 9.625 C-6.82617831 12.92588532 -6.82617831 12.92588532 -5.4375 15.0625 C-3.53154251 16.31861122 -3.53154251 16.31861122 -0.625 15.9375 C3.07015038 14.89562211 3.07015038 14.89562211 5.375 12.0625 C5.92124158 8.39487794 5.85398298 6.7366242 3.6875 3.6875 C1.48924686 1.91057743 1.48924686 1.91057743 -1.125 1.5625 C-3.73463005 1.92188071 -3.73463005 1.92188071 -6 3.625 Z " fill="#CECECE" transform="translate(129.625,15.9375)"/>
<path d="M0 0 C1.98 0.495 1.98 0.495 4 1 C4 1.99 4 2.98 4 4 C4.99 4 5.98 4 7 4 C7.33 3.01 7.66 2.02 8 1 C8.99 1 9.98 1 11 1 C10.67 2.32 10.34 3.64 10 5 C9.34 5 8.68 5 8 5 C7.67 6.32 7.34 7.64 7 9 C6.01 9 5.02 9 4 9 C3.67 10.32 3.34 11.64 3 13 C1.68 13 0.36 13 -1 13 C-0.67 11.35 -0.34 9.7 0 8 C0.99 8 1.98 8 3 8 C3 7.01 3 6.02 3 5 C1.68 4.67 0.36 4.34 -1 4 C-0.67 2.68 -0.34 1.36 0 0 Z " fill="#D9B5B8" transform="translate(71,32)"/>
<path d="M0 0 C3.96 0 7.92 0 12 0 C12 0.33 12 0.66 12 1 C9.03 1 6.06 1 3 1 C3 3.97 3 6.94 3 10 C5.64 10 8.28 10 11 10 C11 10.33 11 10.66 11 11 C8.36 11 5.72 11 3 11 C3 14.3 3 17.6 3 21 C2.01 21 1.02 21 0 21 C0 14.07 0 7.14 0 0 Z " fill="#B9B9B9" transform="translate(106,12)"/>
<path d="M0 0 C1.2375 0.1546875 1.2375 0.1546875 2.5 0.3125 C4.6387261 3.52058915 4.97730962 4.58948497 4.5 8.3125 C1.5 10.3125 1.5 10.3125 -1.125 10 C-3.5 9.3125 -3.5 9.3125 -4.5 8.3125 C-4.6875 5.375 -4.6875 5.375 -4.5 2.3125 C-2.5 0.3125 -2.5 0.3125 0 0 Z " fill="#0B0B0B" transform="translate(211.5,47.6875)"/>
<path d="M0 0 C1.32 0 2.64 0 4 0 C4 0.66 4 1.32 4 2 C4.99 2 5.98 2 7 2 C7.12375 2.639375 7.2475 3.27875 7.375 3.9375 C7.58125 4.618125 7.7875 5.29875 8 6 C8.66 6.33 9.32 6.66 10 7 C10 7.99 10 8.98 10 10 C9.01 10 8.02 10 7 10 C7 9.01 7 8.02 7 7 C5.68 6.67 4.36 6.34 3 6 C3.7425 7.1446875 3.7425 7.1446875 4.5 8.3125 C6 11 6 11 6 14 C5.01 14 4.02 14 3 14 C3 12.68 3 11.36 3 10 C1.68 10 0.36 10 -1 10 C-1 8.35 -1 6.7 -1 5 C-0.01 5 0.98 5 2 5 C2 4.01 2 3.02 2 2 C1.34 2 0.68 2 0 2 C0 1.34 0 0.68 0 0 Z " fill="#121835" transform="translate(11,32)"/>
<path d="M0 0 C4.62 0 9.24 0 14 0 C13.01 0.33 12.02 0.66 11 1 C11.33 1.99 11.66 2.98 12 4 C10.9375 5.5625 10.9375 5.5625 9 7 C5.4375 6.875 5.4375 6.875 2 6 C0 3 0 3 0 0 Z " fill="#1F1F1F" transform="translate(152,25)"/>
<path d="M0 0 C0.99 0.33 1.98 0.66 3 1 C3 2.32 3 3.64 3 5 C1.68 5 0.36 5 -1 5 C-1.33 6.65 -1.66 8.3 -2 10 C-2.99 10 -3.98 10 -5 10 C-5 10.99 -5 11.98 -5 13 C-6.32 13.33 -7.64 13.66 -9 14 C-9.33 12.35 -9.66 10.7 -10 9 C-8.68 9 -7.36 9 -6 9 C-5.67 7.35 -5.34 5.7 -5 4 C-4.01 4 -3.02 4 -2 4 C-1.34 2.68 -0.68 1.36 0 0 Z " fill="#BE5959" transform="translate(92,36)"/>
<path d="M0 0 C1.32 0 2.64 0 4 0 C4 0.66 4 1.32 4 2 C3.01 2.33 2.02 2.66 1 3 C0.67 3.99 0.34 4.98 0 6 C1.32 6 2.64 6 4 6 C4 6.66 4 7.32 4 8 C2.35 8 0.7 8 -1 8 C-1 12.95 -1 17.9 -1 23 C-1.66 23 -2.32 23 -3 23 C-3 18.05 -3 13.1 -3 8 C-3.66 8 -4.32 8 -5 8 C-5 7.34 -5 6.68 -5 6 C-4.34 6 -3.68 6 -3 6 C-2.87625 5.38125 -2.7525 4.7625 -2.625 4.125 C-2 2 -2 2 0 0 Z " fill="#D3D3D3" transform="translate(173,10)"/>
<path d="M0 0 C1.98 0.495 1.98 0.495 4 1 C4 1.66 4 2.32 4 3 C5.32 3 6.64 3 8 3 C8 4.32 8 5.64 8 7 C8.66 7.33 9.32 7.66 10 8 C9.01 8 8.02 8 7 8 C6.67 8.99 6.34 9.98 6 11 C6 10.34 6 9.68 6 9 C5.34 9 4.68 9 4 9 C4 9.99 4 10.98 4 12 C2.35 12 0.7 12 -1 12 C-1 10.68 -1 9.36 -1 8 C0.32 7.34 1.64 6.68 3 6 C3 5.34 3 4.68 3 4 C1.68 4 0.36 4 -1 4 C-0.67 2.68 -0.34 1.36 0 0 Z " fill="#28488A" transform="translate(38,50)"/>
<path d="M0 0 C0.66 0 1.32 0 2 0 C2 1.65 2 3.3 2 5 C3.3921875 4.6596875 3.3921875 4.6596875 4.8125 4.3125 C8 4 8 4 9.6875 5.15625 C11.43947376 7.61735599 11.30396618 9.19820149 11.1875 12.1875 C11.16042969 13.08855469 11.13335937 13.98960938 11.10546875 14.91796875 C11.07066406 15.60503906 11.03585938 16.29210937 11 17 C10.34 17 9.68 17 9 17 C8.67 13.7 8.34 10.4 8 7 C6.35 7 4.7 7 3 7 C2.67 10.3 2.34 13.6 2 17 C1.34 17 0.68 17 0 17 C0 11.39 0 5.78 0 0 Z " fill="#B4B4B4" transform="translate(144,42)"/>
<path d="M0 0 C1.32 0.33 2.64 0.66 4 1 C4 1.99 4 2.98 4 4 C4.99 4 5.98 4 7 4 C7.28875 4.639375 7.5775 5.27875 7.875 5.9375 C8.82823451 8.15206079 8.82823451 8.15206079 11 9 C11 9.99 11 10.98 11 12 C10.01 12 9.02 12 8 12 C8 11.01 8 10.02 8 9 C6.68 9 5.36 9 4 9 C4 10.32 4 11.64 4 13 C3.34 13 2.68 13 2 13 C1.67 12.01 1.34 11.02 1 10 C-0.65 10 -2.3 10 -4 10 C-4 9.34 -4 8.68 -4 8 C-3.01 8 -2.02 8 -1 8 C-0.67 7.34 -0.34 6.68 0 6 C0 6.66 0 7.32 0 8 C0.99 8 1.98 8 3 8 C2.505 7.236875 2.01 6.47375 1.5 5.6875 C0 3 0 3 0 0 Z " fill="#000311" transform="translate(14,38)"/>
<path d="M0 0 C1.32 0 2.64 0 4 0 C4 1.32 4 2.64 4 4 C5.32 4 6.64 4 8 4 C8 2.68 8 1.36 8 0 C9.32 0 10.64 0 12 0 C12 1.65 12 3.3 12 5 C11.01 5 10.02 5 9 5 C8.67 6.32 8.34 7.64 8 9 C6.35 8.67 4.7 8.34 3 8 C3 7.01 3 6.02 3 5 C2.01 4.67 1.02 4.34 0 4 C0 2.68 0 1.36 0 0 Z " fill="#D9DCDA" transform="translate(45,58)"/>
<path d="M0 0 C1.65 0 3.3 0 5 0 C4.67 1.32 4.34 2.64 4 4 C4.99 4 5.98 4 7 4 C7.33 4.99 7.66 5.98 8 7 C8.99 7.33 9.98 7.66 11 8 C11 8.99 11 9.98 11 11 C10.01 11 9.02 11 8 11 C7.67 10.34 7.34 9.68 7 9 C6.01 9 5.02 9 4 9 C3.67 9.66 3.34 10.32 3 11 C2.01 11 1.02 11 0 11 C0 10.01 0 9.02 0 8 C0.99 8 1.98 8 3 8 C3 6.68 3 5.36 3 4 C-0.11785113 4.64644661 -0.11785113 4.64644661 -1 7 C-1.99 7 -2.98 7 -4 7 C-4 6.01 -4 5.02 -4 4 C-3.01 3.67 -2.02 3.34 -1 3 C-0.67 2.01 -0.34 1.02 0 0 Z " fill="#090709" transform="translate(59,25)"/>
<path d="M0 0 C0.99 0.66 1.98 1.32 3 2 C3 2.66 3 3.32 3 4 C2.01 4.495 2.01 4.495 1 5 C1 5.99 1 6.98 1 8 C1.804375 8.639375 2.60875 9.27875 3.4375 9.9375 C6 12 6 12 6.8125 14.25 C6.874375 14.8275 6.93625 15.405 7 16 C5.68 16 4.36 16 3 16 C3 14.68 3 13.36 3 12 C1.68 12.33 0.36 12.66 -1 13 C-1 11.35 -1 9.7 -1 8 C-1.99 8 -2.98 8 -4 8 C-4 7.01 -4 6.02 -4 5 C-4.99 4.67 -5.98 4.34 -7 4 C-6.34 3.34 -5.68 2.68 -5 2 C-2.875 2.375 -2.875 2.375 -1 3 C-0.67 2.01 -0.34 1.02 0 0 Z " fill="#03051A" transform="translate(47,21)"/>
<path d="M0 0 C0.99 0 1.98 0 3 0 C3 0.99 3 1.98 3 3 C4.32 3 5.64 3 7 3 C7 3.99 7 4.98 7 6 C7.66 6 8.32 6 9 6 C9.33 5.34 9.66 4.68 10 4 C12 5.3125 12 5.3125 14 7 C14 7.99 14 8.98 14 10 C13.01 10 12.02 10 11 10 C10.67 9.34 10.34 8.68 10 8 C9.01 7.67 8.02 7.34 7 7 C7 8.32 7 9.64 7 11 C5.68 11 4.36 11 3 11 C2.67 10.01 2.34 9.02 2 8 C1.34 7.34 0.68 6.68 0 6 C0.99 6 1.98 6 3 6 C2.505 5.566875 2.01 5.13375 1.5 4.6875 C0 3 0 3 0 0 Z " fill="#010615" transform="translate(27,31)"/>
<path d="M0 0 C0.66 0 1.32 0 2 0 C2.33 1.32 2.66 2.64 3 4 C3.99 4 4.98 4 6 4 C6 4.99 6 5.98 6 7 C5.01 7 4.02 7 3 7 C3 8.32 3 9.64 3 11 C1.35 10.67 -0.3 10.34 -2 10 C-2 9.01 -2 8.02 -2 7 C-2.99 7 -3.98 7 -5 7 C-4.67 5.68 -4.34 4.36 -4 3 C-3.01 3 -2.02 3 -1 3 C-0.67 2.01 -0.34 1.02 0 0 Z " fill="#947D7D" transform="translate(68,22)"/>
<path d="M0 0 C2.8125 0.875 2.8125 0.875 4.8125 2.875 C5.35837156 8.87958716 5.35837156 8.87958716 3.75 11.8125 C0.65756242 13.50835287 -1.74264741 13.30560657 -5.1875 12.875 C-7.56216282 10.80674529 -8.07435647 9.44071765 -8.6875 6.375 C-8.1875 3.875 -8.1875 3.875 -6.0625 1.5 C-3.1875 -0.125 -3.1875 -0.125 0 0 Z M-4.1875 1.875 C-6.55442966 4.72326598 -6.55442966 4.72326598 -5.8125 8.0625 C-5.60625 8.990625 -5.4 9.91875 -5.1875 10.875 C-2.28676819 11.55301034 -2.28676819 11.55301034 0.8125 11.875 C3.12813087 9.98999729 3.12813087 9.98999729 3.0625 6.875 C3.12813087 3.76000271 3.12813087 3.76000271 0.8125 1.875 C-1.6875 1.45833333 -1.6875 1.45833333 -4.1875 1.875 Z " fill="#BFBFBF" transform="translate(198.1875,46.125)"/>
<path d="M0 0 C1.32 0.33 2.64 0.66 4 1 C4 1.66 4 2.32 4 3 C6.64 3 9.28 3 12 3 C12 4.65 12 6.3 12 8 C11.360625 8.12375 10.72125 8.2475 10.0625 8.375 C9.381875 8.58125 8.70125 8.7875 8 9 C7.67 9.66 7.34 10.32 7 11 C6.01 11 5.02 11 4 11 C4 10.01 4 9.02 4 8 C4.99 8 5.98 8 7 8 C7 7.01 7 6.02 7 5 C3.99882243 4.66085995 3.99882243 4.66085995 2.375 6.5 C1.92125 6.995 1.4675 7.49 1 8 C0.67 8 0.34 8 0 8 C0 5.36 0 2.72 0 0 Z " fill="#14214B" transform="translate(34,38)"/>
<path d="M0 0 C0.99 0 1.98 0 3 0 C3 1.32 3 2.64 3 4 C2.01 4 1.02 4 0 4 C0 4.99 0 5.98 0 7 C2.31 7.33 4.62 7.66 7 8 C7 9.32 7 10.64 7 12 C5.68 12 4.36 12 3 12 C2.67 12.99 2.34 13.98 2 15 C2 14.34 2 13.68 2 13 C1.01 12.67 0.02 12.34 -1 12 C-2.11658501 7.31034294 -1.80619523 4.46236469 0 0 Z " fill="#61719D" transform="translate(59,29)"/>
<path d="M0 0 C2.375 0.875 2.375 0.875 5.375 2.875 C5.74533222 6.26971203 5.98421702 8.76407484 4.3125 11.8125 C1.25523824 13.4890629 -1.2156288 13.24028977 -4.625 12.875 C-6.5625 11.75 -6.5625 11.75 -7.625 9.875 C-8.125 6.9375 -8.125 6.9375 -7.625 3.875 C-5.11426889 1.07732819 -3.82527081 -0.18215575 0 0 Z M-5.625 3.875 C-5.30173447 7.47179066 -5.30173447 7.47179066 -4.625 10.875 C-1.72426819 11.55301034 -1.72426819 11.55301034 1.375 11.875 C3.69063087 9.98999729 3.69063087 9.98999729 3.625 6.875 C3.69063087 3.76000271 3.69063087 3.76000271 1.375 1.875 C-2.5924509 1.44030472 -2.5924509 1.44030472 -5.625 3.875 Z " fill="#C5C5C5" transform="translate(178.625,46.125)"/>
<path d="M0 0 C0.33 1.65 0.66 3.3 1 5 C-2.96 5 -6.92 5 -11 5 C-8.1561798 -2.10955049 -6.99441147 -1.16573524 0 0 Z " fill="#0A0A0A" transform="translate(163,19)"/>
<path d="M0 0 C2 2 2 2 2.1953125 4.3828125 C2.17210937 5.28773437 2.14890625 6.19265625 2.125 7.125 C2.10695312 8.03507812 2.08890625 8.94515625 2.0703125 9.8828125 C2.04710937 10.58148438 2.02390625 11.28015625 2 12 C1.34 12 0.68 12 0 12 C-0.33 8.7 -0.66 5.4 -1 2 C-2.65 2 -4.3 2 -6 2 C-6.33 5.3 -6.66 8.6 -7 12 C-7.66 12 -8.32 12 -9 12 C-9 8.04 -9 4.08 -9 0 C-5.14943042 -0.9626424 -3.67192165 -1.06292469 0 0 Z " fill="#B5B5B5" transform="translate(167,47)"/>
<path d="M0 0 C0 0.66 0 1.32 0 2 C-1.65 2.66 -3.3 3.32 -5 4 C-5.33 8.29 -5.66 12.58 -6 17 C-6.99 17 -7.98 17 -9 17 C-9 11.72 -9 6.44 -9 1 C-7.68 1 -6.36 1 -5 1 C-3 0 -3 0 0 0 Z " fill="#B3B3B3" transform="translate(188,16)"/>
<path d="M0 0 C3.125 0.375 3.125 0.375 6 1 C6.33 2.32 6.66 3.64 7 5 C6.34 5 5.68 5 5 5 C4.67 4.34 4.34 3.68 4 3 C1.97536745 2.34786708 1.97536745 2.34786708 0 2 C0.72268235 5.2985139 0.72268235 5.2985139 4.0625 6.6875 C5.031875 7.120625 6.00125 7.55375 7 8 C6.67 9.65 6.34 11.3 6 13 C4.02 13 2.04 13 0 13 C-0.66 11.68 -1.32 10.36 -2 9 C-1.34 9 -0.68 9 0 9 C0.33 9.66 0.66 10.32 1 11 C3.02463255 11.65213292 3.02463255 11.65213292 5 12 C5 10.68 5 9.36 5 8 C2.03 7.505 2.03 7.505 -1 7 C-1.625 4.625 -1.625 4.625 -2 2 C-1.34 1.34 -0.68 0.68 0 0 Z " fill="#B2B2B2" transform="translate(241,46)"/>
<path d="M0 0 C2.82588048 0.50720932 3.759269 1.14097336 5.4375 3.4375 C5.4375 4.0975 5.4375 4.7575 5.4375 5.4375 C4.7775 5.4375 4.1175 5.4375 3.4375 5.4375 C3.1075 4.7775 2.7775 4.1175 2.4375 3.4375 C0.77138095 3.394779 -0.89632885 3.39686168 -2.5625 3.4375 C-3.91868499 4.56284105 -3.91868499 4.56284105 -3.625 7.5 C-3.604375 8.469375 -3.58375 9.43875 -3.5625 10.4375 C-0.09102158 11.18707157 -0.09102158 11.18707157 3.4375 11.4375 C3.4375 10.7775 3.4375 10.1175 3.4375 9.4375 C4.0975 9.4375 4.7575 9.4375 5.4375 9.4375 C4.7775 10.7575 4.1175 12.0775 3.4375 13.4375 C-2.9407235 13.79853152 -2.9407235 13.79853152 -5.5 12.3125 C-7.09240283 9.50237736 -7.01569325 7.60985276 -6.5625 4.4375 C-4.55049381 1.60578758 -3.44178233 0.58762137 0 0 Z " fill="#C3C3C3" transform="translate(135.5625,45.5625)"/>
<path d="M0 0 C0.66 0 1.32 0 2 0 C2.33 0.99 2.66 1.98 3 3 C0.43896424 7.21331689 0.43896424 7.21331689 -2 9 C-4.85741071 9.52192557 -7.0665649 9.29831543 -10 9 C-10 7.35 -10 5.7 -10 4 C-10.99 3.67 -11.98 3.34 -13 3 C-11.68 3 -10.36 3 -9 3 C-9 4.65 -9 6.3 -9 8 C-7.68 8 -6.36 8 -5 8 C-5 6.35 -5 4.7 -5 3 C-3.35 3 -1.7 3 0 3 C0 2.01 0 1.02 0 0 Z " fill="#030D24" transform="translate(42,59)"/>
<path d="M0 0 C0.99 0 1.98 0 3 0 C3 1.32 3 2.64 3 4 C4.32 4 5.64 4 7 4 C7 4.99 7 5.98 7 7 C5.35 7 3.7 7 2 7 C2.33 8.32 2.66 9.64 3 11 C1 11 1 11 -1.125 9 C-1.74375 8.34 -2.3625 7.68 -3 7 C-1.125 2.25 -1.125 2.25 0 0 Z " fill="#342020" transform="translate(63,10)"/>
<path d="M0 0 C1.65 0.33 3.3 0.66 5 1 C4.67 2.32 4.34 3.64 4 5 C3.01 5 2.02 5 1 5 C0.67 6.32 0.34 7.64 0 9 C-1.65 8.67 -3.3 8.34 -5 8 C-4.67 6.68 -4.34 5.36 -4 4 C-2.68 4 -1.36 4 0 4 C0 2.68 0 1.36 0 0 Z " fill="#C4595D" transform="translate(69,58)"/>
<path d="M0 0 C1.32 0 2.64 0 4 0 C4.103125 0.598125 4.20625 1.19625 4.3125 1.8125 C5.08876455 4.28243264 6.07088921 5.32251235 8 7 C5.21176345 8.0326802 4.1322726 8.04509293 1.25 7.0625 C0.5075 6.711875 -0.235 6.36125 -1 6 C-1 6.66 -1 7.32 -1 8 C-1.99 8 -2.98 8 -4 8 C-4 7.01 -4 6.02 -4 5 C-3.01 4.67 -2.02 4.34 -1 4 C-0.26676204 1.98491642 -0.26676204 1.98491642 0 0 Z " fill="#061B42" transform="translate(54,37)"/>
<path d="M0 0 C0.33 0.99 0.66 1.98 1 3 C1.99 3 2.98 3 4 3 C4.33 4.65 4.66 6.3 5 8 C5.66 8 6.32 8 7 8 C7 8.99 7 9.98 7 11 C6.01 11 5.02 11 4 11 C4 10.01 4 9.02 4 8 C2.35 8.33 0.7 8.66 -1 9 C-1.33 8.34 -1.66 7.68 -2 7 C-1.67 6.01 -1.34 5.02 -1 4 C-1.99 4.33 -2.98 4.66 -4 5 C-3.67 4.01 -3.34 3.02 -3 2 C-2.34 2 -1.68 2 -1 2 C-0.67 1.34 -0.34 0.68 0 0 Z " fill="#0D0200" transform="translate(71,18)"/>
<path d="M0 0 C0 0.66 0 1.32 0 2 C-1.21236328 2.61294922 -1.21236328 2.61294922 -2.44921875 3.23828125 C-5.29007334 4.78223377 -5.29007334 4.78223377 -5.70703125 7.91796875 C-5.74183594 8.99691406 -5.77664062 10.07585938 -5.8125 11.1875 C-5.88404297 12.81751953 -5.88404297 12.81751953 -5.95703125 14.48046875 C-5.97121094 15.31191406 -5.98539063 16.14335938 -6 17 C-6.66 17 -7.32 17 -8 17 C-8 11.72 -8 6.44 -8 1 C-3 0 -3 0 0 0 Z " fill="#CDCDCD" transform="translate(148,16)"/>
<path d="M0 0 C0.33 1.32 0.66 2.64 1 4 C2.65 4 4.3 4 6 4 C4.68 4.33 3.36 4.66 2 5 C2.0868276 7.12577907 2.1949951 9.25069581 2.3125 11.375 C2.39951172 13.15003906 2.39951172 13.15003906 2.48828125 14.9609375 C2.65714844 15.96382812 2.82601562 16.96671875 3 18 C3.99 18.66 4.98 19.32 6 20 C4.02 19.67 2.04 19.34 0 19 C0 14.38 0 9.76 0 5 C-0.66 4.67 -1.32 4.34 -2 4 C-1.34 4 -0.68 4 0 4 C0 2.68 0 1.36 0 0 Z " fill="#DCDCDC" transform="translate(229,13)"/>
<path d="M0 0 C0 0.99 0 1.98 0 3 C-1.32 3 -2.64 3 -4 3 C-4 2.01 -4 1.02 -4 0 C-4.99 0 -5.98 0 -7 0 C-7 0.99 -7 1.98 -7 3 C-6.34 3 -5.68 3 -5 3 C-5 4.65 -5 6.3 -5 8 C-6.32 7.67 -7.64 7.34 -9 7 C-8.67 4.36 -8.34 1.72 -8 -1 C-4.59745511 -2.2151946 -3.06748874 -1.86240388 0 0 Z " fill="#CB6F75" transform="translate(78,46)"/>
<path d="M0 0 C2.97 0 5.94 0 9 0 C8.67 1.65 8.34 3.3 8 5 C3.25 6.125 3.25 6.125 1 5 C1 4.34 1 3.68 1 3 C0.01 3.33 -0.98 3.66 -2 4 C-2 3.34 -2 2.68 -2 2 C-1.34 2 -0.68 2 0 2 C0 1.34 0 0.68 0 0 Z " fill="#171717" transform="translate(207,58)"/>
<path d="M0 0 C0.33 0 0.66 0 1 0 C1.268125 0.9075 1.53625 1.815 1.8125 2.75 C2.89576294 5.71471963 3.98359457 7.6169754 6 10 C9.71888239 9.49287967 12.73454239 8.88391785 16 7 C14.25 10.875 14.25 10.875 12 12 C9.06592458 12.28394278 6.84953616 12.48994001 4 12 C1.5 9.9375 1.5 9.9375 0 7 C-0.25 3.1875 -0.25 3.1875 0 0 Z " fill="#C5C5C5" transform="translate(120,21)"/>
<path d="M0 0 C0.66 0 1.32 0 2 0 C2.33 1.32 2.66 2.64 3 4 C2.01 4.33 1.02 4.66 0 5 C0.99 5.99 1.98 6.98 3 8 C2.67 8.66 2.34 9.32 2 10 C-0.16874252 9.49396008 -1.99967627 9.00016187 -4 8 C-4 6.35 -4 4.7 -4 3 C-3.34 2.67 -2.68 2.34 -2 2 C-1.34 2.33 -0.68 2.66 0 3 C0 2.01 0 1.02 0 0 Z " fill="#1A2847" transform="translate(44,15)"/>
<path d="M0 0 C3.3 0 6.6 0 10 0 C10 0.66 10 1.32 10 2 C9.34 2 8.68 2 8 2 C7.67 2.99 7.34 3.98 7 5 C4.625 5.125 4.625 5.125 2 5 C1.34 4.34 0.68 3.68 0 3 C0 2.01 0 1.02 0 0 Z " fill="#212121" transform="translate(117,53)"/>
<path d="M0 0 C-0.33 1.32 -0.66 2.64 -1 4 C-1.99 4 -2.98 4 -4 4 C-4.33 5.32 -4.66 6.64 -5 8 C-6.32 8 -7.64 8 -9 8 C-8.67 6.35 -8.34 4.7 -8 3 C-7.01 3 -6.02 3 -5 3 C-5 2.34 -5 1.68 -5 1 C-2 0 -2 0 0 0 Z " fill="#F1EFEC" transform="translate(79,37)"/>
<path d="M0 0 C0.33 1.32 0.66 2.64 1 4 C0.34 3.34 -0.32 2.68 -1 2 C-3.54190002 1.7499227 -3.54190002 1.7499227 -6 2 C-7.41577477 3.18424326 -7.41577477 3.18424326 -7.0625 6.5625 C-7.041875 7.696875 -7.02125 8.83125 -7 10 C-7.99 10.495 -7.99 10.495 -9 11 C-10.54163175 7.9167365 -10.29747535 5.39121901 -10 2 C-6.98160349 -1.71494955 -4.37763951 -1.09440988 0 0 Z " fill="#B5B5B5" transform="translate(215,47)"/>
<path d="M0 0 C0.33 0 0.66 0 1 0 C1.12375 1.11375 1.2475 2.2275 1.375 3.375 C1.6465813 7.03103677 1.6465813 7.03103677 4 9 C4 9.99 4 10.98 4 12 C3.01 12 2.02 12 1 12 C1 10.68 1 9.36 1 8 C-0.32 8 -1.64 8 -3 8 C-3 6.35 -3 4.7 -3 3 C-2.01 3 -1.02 3 0 3 C0 2.01 0 1.02 0 0 Z " fill="#0E122A" transform="translate(13,34)"/>
<path d="M0 0 C3.875 0.875 3.875 0.875 5 2 C5.07271741 4.35313555 5.08370868 6.70833668 5.0625 9.0625 C5.05347656 10.35285156 5.04445312 11.64320312 5.03515625 12.97265625 C5.02355469 13.97167969 5.01195312 14.97070312 5 16 C4.34 16 3.68 16 3 16 C2.92652344 14.64455078 2.92652344 14.64455078 2.8515625 13.26171875 C2.77679688 12.08222656 2.70203125 10.90273438 2.625 9.6875 C2.55539063 8.51574219 2.48578125 7.34398437 2.4140625 6.13671875 C2.21386253 2.84300113 2.21386253 2.84300113 0 0 Z " fill="#CCCCCC" transform="translate(219,17)"/>
<path d="M0 0 C0.99 0 1.98 0 3 0 C3 1.32 3 2.64 3 4 C4.32 4 5.64 4 7 4 C7.33 6.64 7.66 9.28 8 12 C7.34 11.01 6.68 10.02 6 9 C5.01 8.67 4.02 8.34 3 8 C2.67 7.01 2.34 6.02 2 5 C1.34 4.67 0.68 4.34 0 4 C0 2.68 0 1.36 0 0 Z " fill="#511917" transform="translate(75,41)"/>
<path d="M0 0 C1.32 0 2.64 0 4 0 C4 0.99 4 1.98 4 3 C3.01 3.495 3.01 3.495 2 4 C1.67 4.99 1.34 5.98 1 7 C1.66 7.33 2.32 7.66 3 8 C2.34 8 1.68 8 1 8 C0.67 8.99 0.34 9.98 0 11 C0 9.68 0 8.36 0 7 C-0.99 7 -1.98 7 -3 7 C-2.67 5.68 -2.34 4.36 -2 3 C-1.34 3 -0.68 3 0 3 C0 2.01 0 1.02 0 0 Z " fill="#0B132C" transform="translate(22,27)"/>
<path d="M0 0 C2 2 2 2 2 6 C1.34 6 0.68 6 0 6 C-0.66 4.68 -1.32 3.36 -2 2 C-3.65 2 -5.3 2 -7 2 C-7.66 3.98 -8.32 5.96 -9 8 C-9.33 8 -9.66 8 -10 8 C-10.25 5.1875 -10.25 5.1875 -10 2 C-6.94783427 -1.63912068 -4.35383535 -1.23043173 0 0 Z " fill="#BABABA" transform="translate(235,47)"/>
<path d="M0 0 C1.32 0 2.64 0 4 0 C4 0.99 4 1.98 4 3 C4.99 3 5.98 3 7 3 C6.67 4.65 6.34 6.3 6 8 C5.01 7.67 4.02 7.34 3 7 C3 6.01 3 5.02 3 4 C2.01 3.67 1.02 3.34 0 3 C0 2.01 0 1.02 0 0 Z " fill="#263C67" transform="translate(39,26)"/>
<path d="M0 0 C1.258125 -0.020625 2.51625 -0.04125 3.8125 -0.0625 C4.52019531 -0.07410156 5.22789063 -0.08570313 5.95703125 -0.09765625 C8 0 8 0 11 1 C11 2.32 11 3.64 11 5 C9.35 5 7.7 5 6 5 C6 4.01 6 3.02 6 2 C5.34 2 4.68 2 4 2 C3.67 2.99 3.34 3.98 3 5 C3 3.68 3 2.36 3 1 C2.01 0.67 1.02 0.34 0 0 Z " fill="#BC7678" transform="translate(54,57)"/>
<path d="M0 0 C3.25666272 0.56149357 4.95623323 1.37229986 7 4 C7.6875 6.1875 7.6875 6.1875 8 8 C6.68 8 5.36 8 4 8 C4 6.68 4 5.36 4 4 C2.68 4.33 1.36 4.66 0 5 C0 3.35 0 1.7 0 0 Z " fill="#030E2E" transform="translate(46,29)"/>
<path d="M0 0 C0.66 0 1.32 0 2 0 C2.33 0.99 2.66 1.98 3 3 C3.99 3.33 4.98 3.66 6 4 C6.33 4.99 6.66 5.98 7 7 C7.99 7.66 8.98 8.32 10 9 C7.36 8.67 4.72 8.34 2 8 C0.74335022 5.09399739 0 3.20395416 0 0 Z " fill="#4A0F0E" transform="translate(67,50)"/>
<path d="M0 0 C1.65 0 3.3 0 5 0 C5.66 1.32 6.32 2.64 7 4 C4.36 4 1.72 4 -1 4 C-0.67 2.68 -0.34 1.36 0 0 Z " fill="#090909" transform="translate(228,48)"/>
<path d="M0 0 C1.65 0 3.3 0 5 0 C5.33 1.32 5.66 2.64 6 4 C3.36 4 0.72 4 -2 4 C-1.34 2.68 -0.68 1.36 0 0 Z " fill="#080808" transform="translate(119,48)"/>
<path d="M0 0 C0.99 0.33 1.98 0.66 3 1 C3 1.66 3 2.32 3 3 C3.99 3 4.98 3 6 3 C6 4.32 6 5.64 6 7 C4.68 7 3.36 7 2 7 C2 6.01 2 5.02 2 4 C1.01 3.67 0.02 3.34 -1 3 C-0.67 2.01 -0.34 1.02 0 0 Z " fill="#A24F56" transform="translate(80,25)"/>
<path d="M0 0 C0.33 0.99 0.66 1.98 1 3 C1.99 3 2.98 3 4 3 C4 4.32 4 5.64 4 7 C1.69 6.67 -0.62 6.34 -3 6 C-3 5.01 -3 4.02 -3 3 C-2.01 3 -1.02 3 0 3 C0 2.01 0 1.02 0 0 Z " fill="#673234" transform="translate(74,26)"/>
<path d="M0 0 C1.32 0 2.64 0 4 0 C4 0.66 4 1.32 4 2 C3.01 2.33 2.02 2.66 1 3 C0.67 3.99 0.34 4.98 0 6 C1.32 6 2.64 6 4 6 C3.67 6.66 3.34 7.32 3 8 C0.36 7.67 -2.28 7.34 -5 7 C-4.34 6.67 -3.68 6.34 -3 6 C-2.65657551 4.66923011 -2.32380126 3.33568021 -2 2 C-1.34 1.34 -0.68 0.68 0 0 Z " fill="#949494" transform="translate(173,10)"/>
<path d="M0 0 C0.99 0 1.98 0 3 0 C3.33 0.99 3.66 1.98 4 3 C4.99 3.33 5.98 3.66 7 4 C7 5.32 7 6.64 7 8 C5.68 8 4.36 8 3 8 C2.87625 7.360625 2.7525 6.72125 2.625 6.0625 C2.315625 5.0415625 2.315625 5.0415625 2 4 C1.34 3.67 0.68 3.34 0 3 C0 2.01 0 1.02 0 0 Z " fill="#26212D" transform="translate(46,54)"/>
<path d="M0 0 C2.64 0 5.28 0 8 0 C8 0.99 8 1.98 8 3 C6.02 3.33 4.04 3.66 2 4 C1.34 2.68 0.68 1.36 0 0 Z " fill="#070707" transform="translate(227,54)"/>
<path d="M0 0 C0.33 0.66 0.66 1.32 1 2 C3.32156597 2.40729228 5.6568787 2.74438677 8 3 C8 3.99 8 4.98 8 6 C7.01 6 6.02 6 5 6 C4.67 5.34 4.34 4.68 4 4 C3.01 4 2.02 4 1 4 C0.67 4.66 0.34 5.32 0 6 C-0.99 6 -1.98 6 -3 6 C-3 5.01 -3 4.02 -3 3 C-2.01 3 -1.02 3 0 3 C0 2.01 0 1.02 0 0 Z " fill="#1D161F" transform="translate(62,30)"/>
<path d="M0 0 C1.32 0 2.64 0 4 0 C3.67 1.65 3.34 3.3 3 5 C2.01 5 1.02 5 0 5 C0 5.66 0 6.32 0 7 C-0.66 7 -1.32 7 -2 7 C-2.33 6.01 -2.66 5.02 -3 4 C-2.01 4 -1.02 4 0 4 C0 2.68 0 1.36 0 0 Z " fill="#304291" transform="translate(50,37)"/>
<path d="M0 0 C0.99 0 1.98 0 3 0 C2.67 2.31 2.34 4.62 2 7 C1.360625 7.103125 0.72125 7.20625 0.0625 7.3125 C-0.618125 7.539375 -1.29875 7.76625 -2 8 C-2.33 8.99 -2.66 9.98 -3 11 C-4.24546405 8.50907189 -3.7767578 7.58919267 -3 5 C-1.68 5 -0.36 5 1 5 C0.67 3.35 0.34 1.7 0 0 Z " fill="#290304" transform="translate(94,36)"/>
<path d="M0 0 C0.99 0 1.98 0 3 0 C4 6.625 4 6.625 4 10 C1.2027092 7.93243723 0.97307727 6.85559629 0.3125 3.3125 C0.209375 2.219375 0.10625 1.12625 0 0 Z " fill="#B5B5B5" transform="translate(189,22)"/>
<path d="M0 0 C0.99 0 1.98 0 3 0 C2.67 2.64 2.34 5.28 2 8 C1.01 7.67 0.02 7.34 -1 7 C-0.67 4.69 -0.34 2.38 0 0 Z " fill="#172E6A" transform="translate(46,46)"/>
<path d="M0 0 C3.875 0.875 3.875 0.875 5 2 C5.1875 5.4375 5.1875 5.4375 5 9 C4.34 9.66 3.68 10.32 3 11 C2 9 2 9 2.0625 6.0625 C2.27092595 2.82398066 2.27092595 2.82398066 0 0 Z " fill="#B5B5B5" transform="translate(198,47)"/>
<path d="M0 0 C0.93423645 3.01031744 1.04449911 3.86650268 0 7 C-0.99 7 -1.98 7 -3 7 C-5.1875 4.5 -5.1875 4.5 -7 2 C-6.01 1.67 -5.02 1.34 -4 1 C-4 1.66 -4 2.32 -4 3 C-2.68 3 -1.36 3 0 3 C0 2.01 0 1.02 0 0 Z " fill="#3D0F11" transform="translate(86,29)"/>
<path d="M0 0 C1.32 0 2.64 0 4 0 C4 1.65 4 3.3 4 5 C2.35 4.67 0.7 4.34 -1 4 C-0.67 2.68 -0.34 1.36 0 0 Z " fill="#C66366" transform="translate(65,62)"/>
<path d="M0 0 C2 0.66666667 4 1.33333333 6 2 C6 2.99 6 3.98 6 5 C4.68 5 3.36 5 2 5 C2 4.34 2 3.68 2 3 C0.68 3 -0.64 3 -2 3 C-2 2.34 -2 1.68 -2 1 C-1.34 0.67 -0.68 0.34 0 0 Z " fill="#170203" transform="translate(85,49)"/>
<path d="M0 0 C2.5 0.375 2.5 0.375 4.3125 1.75 C5.5 3.375 5.5 3.375 5.5 5.375 C4.84 5.375 4.18 5.375 3.5 5.375 C3.17 4.715 2.84 4.055 2.5 3.375 C1.736875 3.375 0.97375 3.375 0.1875 3.375 C-1.70833333 3.375 -3.60416667 3.375 -5.5 3.375 C-3.72510401 1.13302612 -2.87824511 0.43173677 0 0 Z " fill="#B0B0B0" transform="translate(135.5,45.625)"/>
<path d="M0 0 C3 0 3 0 4.6875 1.25 C6 3 6 3 6 7 C5.01 7 4.02 7 3 7 C2.67 6.01 2.34 5.02 2 4 C1.34 3.67 0.68 3.34 0 3 C0 2.01 0 1.02 0 0 Z " fill="#273665" transform="translate(23,35)"/>
<path d="M0 0 C0.99 0 1.98 0 3 0 C3 0.99 3 1.98 3 3 C4.32 3 5.64 3 7 3 C6.67 4.32 6.34 5.64 6 7 C2.99390037 5.99796679 1.93823179 5.39971554 0 3 C0 2.01 0 1.02 0 0 Z " fill="#2A3965" transform="translate(27,31)"/>
<path d="M0 0 C1.98 0.495 1.98 0.495 4 1 C4 2.32 4 3.64 4 5 C2.35 4.67 0.7 4.34 -1 4 C-0.67 2.68 -0.34 1.36 0 0 Z " fill="#DE666C" transform="translate(74,53)"/>
<path d="M0 0 C1.98 0.495 1.98 0.495 4 1 C3.67 2.32 3.34 3.64 3 5 C1.68 4.67 0.36 4.34 -1 4 C-0.67 2.68 -0.34 1.36 0 0 Z " fill="#F9F6F3" transform="translate(58,53)"/>
<path d="M0 0 C0 0.99 0 1.98 0 3 C-0.99 3.66 -1.98 4.32 -3 5 C-3.99 6.485 -3.99 6.485 -5 8 C-5.66 6.68 -6.32 5.36 -7 4 C-6.01 4 -5.02 4 -4 4 C-4 3.01 -4 2.02 -4 1 C-2 0 -2 0 0 0 Z " fill="#000324" transform="translate(29,50)"/>
<path d="M0 0 C0.99 0 1.98 0 3 0 C3 0.66 3 1.32 3 2 C3.99 2 4.98 2 6 2 C6 3.32 6 4.64 6 6 C5.01 6 4.02 6 3 6 C3 5.01 3 4.02 3 3 C2.01 3 1.02 3 0 3 C0 2.01 0 1.02 0 0 Z " fill="#81434B" transform="translate(72,18)"/>
<path d="M0 0 C0.66 0 1.32 0 2 0 C2.66 0.66 3.32 1.32 4 2 C4.66 2.33 5.32 2.66 6 3 C6 4.32 6 5.64 6 7 C3.53199953 5.84826645 1.95216435 4.95216435 0 3 C0 2.01 0 1.02 0 0 Z " fill="#7F7B79" transform="translate(52,14)"/>
<path d="M0 0 C1.32 0 2.64 0 4 0 C4 1.65 4 3.3 4 5 C2.68 5 1.36 5 0 5 C0 3.35 0 1.7 0 0 Z " fill="#1A3C7A" transform="translate(33,62)"/>
<path d="M0 0 C1.65 0 3.3 0 5 0 C5 1.32 5 2.64 5 4 C3.35 4 1.7 4 0 4 C0 2.68 0 1.36 0 0 Z " fill="#1C398E" transform="translate(37,58)"/>
<path d="M0 0 C0.99 0.33 1.98 0.66 3 1 C3 2.32 3 3.64 3 5 C1.35 4.67 -0.3 4.34 -2 4 C-1.34 2.68 -0.68 1.36 0 0 Z " fill="#D56C70" transform="translate(92,36)"/>
<path d="M0 0 C0.99 0 1.98 0 3 0 C3 1.65 3 3.3 3 5 C1.68 5 0.36 5 -1 5 C-0.67 3.35 -0.34 1.7 0 0 Z " fill="#384D8C" transform="translate(55,32)"/>
<path d="M0 0 C0.66 0 1.32 0 2 0 C2.185625 1.7015625 2.185625 1.7015625 2.375 3.4375 C2.684375 5.2009375 2.684375 5.2009375 3 7 C3.66 7.33 4.32 7.66 5 8 C4.01 8 3.02 8 2 8 C0 6 0 6 -0.125 2.875 C-0.08375 1.92625 -0.0425 0.9775 0 0 Z " fill="#B1B1B1" transform="translate(171,50)"/>
<path d="M0 0 C1.32 0.33 2.64 0.66 4 1 C4 2.32 4 3.64 4 5 C2.68 5 1.36 5 0 5 C0 3.35 0 1.7 0 0 Z " fill="#E06671" transform="translate(78,49)"/>
<path d="M0 0 C1.32 0.33 2.64 0.66 4 1 C4 2.32 4 3.64 4 5 C2.68 5 1.36 5 0 5 C0 3.35 0 1.7 0 0 Z " fill="#F8F1EF" transform="translate(62,49)"/>
<path d="M0 0 C1.65 0 3.3 0 5 0 C5.33 1.65 5.66 3.3 6 5 C4.35 4.67 2.7 4.34 1 4 C0.67 2.68 0.34 1.36 0 0 Z " fill="#555251" transform="translate(61,45)"/>
<path d="M0 0 C1.65 0.33 3.3 0.66 5 1 C5.33 1.99 5.66 2.98 6 4 C3.69 3.67 1.38 3.34 -1 3 C-0.67 2.01 -0.34 1.02 0 0 Z " fill="#112F6B" transform="translate(56,41)"/>
<path d="M0 0 C1.04449911 3.13349732 0.93423645 3.98968256 0 7 C0.99 7.33 1.98 7.66 3 8 C1.68 8.33 0.36 8.66 -1 9 C-1.33 8.34 -1.66 7.68 -2 7 C-1.67 6.01 -1.34 5.02 -1 4 C-1.99 4.33 -2.98 4.66 -4 5 C-3.67 4.01 -3.34 3.02 -3 2 C-2.34 2 -1.68 2 -1 2 C-0.67 1.34 -0.34 0.68 0 0 Z " fill="#2A090A" transform="translate(71,18)"/>
<path d="M0 0 C0.99 0.33 1.98 0.66 3 1 C2.67 2.32 2.34 3.64 2 5 C1.34 5 0.68 5 0 5 C-0.33 5.99 -0.66 6.98 -1 8 C-1.33 6.02 -1.66 4.04 -2 2 C-1.34 2 -0.68 2 0 2 C0 1.34 0 0.68 0 0 Z " fill="#1A1A1A" transform="translate(167,17)"/>
<path d="M0 0 C0.99 0 1.98 0 3 0 C3 1.65 3 3.3 3 5 C1.68 4.67 0.36 4.34 -1 4 C-0.67 2.68 -0.34 1.36 0 0 Z " fill="#EFEAF0" transform="translate(54,49)"/>
<path d="M0 0 C1.32 0 2.64 0 4 0 C3.67 1.98 3.34 3.96 3 6 C2.67 5.34 2.34 4.68 2 4 C1.34 4 0.68 4 0 4 C0 2.68 0 1.36 0 0 Z " fill="#121E45" transform="translate(18,47)"/>
<path d="M0 0 C1.32 0 2.64 0 4 0 C3.67 1.65 3.34 3.3 3 5 C2.01 4.67 1.02 4.34 0 4 C0 2.68 0 1.36 0 0 Z " fill="#E4666E" transform="translate(82,45)"/>
<path d="M0 0 C1.32 0 2.64 0 4 0 C4 1.32 4 2.64 4 4 C2.35 3.67 0.7 3.34 -1 3 C-0.67 2.01 -0.34 1.02 0 0 Z " fill="#2A4A92" transform="translate(42,46)"/>
<path d="M0 0 C1.32 0 2.64 0 4 0 C3.67 1.65 3.34 3.3 3 5 C2.01 4.67 1.02 4.34 0 4 C0 2.68 0 1.36 0 0 Z " fill="#FDF4F5" transform="translate(66,45)"/>
<path d="M0 0 C0.66 0 1.32 0 2 0 C2.33 1.32 2.66 2.64 3 4 C1.35 4 -0.3 4 -2 4 C-2 4.66 -2 5.32 -2 6 C-2.66 6 -3.32 6 -4 6 C-3.67 4.68 -3.34 3.36 -3 2 C-2.01 2.33 -1.02 2.66 0 3 C0 2.01 0 1.02 0 0 Z " fill="#39455B" transform="translate(44,15)"/>
<path d="M0 0 C1.32 0 2.64 0 4 0 C4.33 0.99 4.66 1.98 5 3 C3.35 3.33 1.7 3.66 0 4 C0 2.68 0 1.36 0 0 Z " fill="#091F3B" transform="translate(37,54)"/>
<path d="M0 0 C1.32 0.33 2.64 0.66 4 1 C4 2.32 4 3.64 4 5 C2.68 5 1.36 5 0 5 C0 3.35 0 1.7 0 0 Z " fill="#D17073" transform="translate(78,40)"/>
<path d="M0 0 C1.32 0.33 2.64 0.66 4 1 C4 2.32 4 3.64 4 5 C2.68 5 1.36 5 0 5 C0 3.35 0 1.7 0 0 Z " fill="#292E42" transform="translate(62,36)"/>
<path d="M0 0 C0.99 0.33 1.98 0.66 3 1 C2.67 2.32 2.34 3.64 2 5 C1.01 5 0.02 5 -1 5 C-0.67 3.35 -0.34 1.7 0 0 Z " fill="#314D8E" transform="translate(43,37)"/>
<path d="M0 0 C0.99 0 1.98 0 3 0 C2.67 1.65 2.34 3.3 2 5 C1.01 4.67 0.02 4.34 -1 4 C-0.67 2.68 -0.34 1.36 0 0 Z " fill="#3A4989" transform="translate(47,33)"/>
</svg>
